<svg width=" 10.4363in"  height="  6.3692in" viewBox="0 0  10.4363   6.3692">
<path style="fill:none;stroke:#000000;stroke-width:0.001;stroke-opacity:1"
d = "M   3.1000,   3.3100
L   3.0995,   3.3024
L   3.0980,   3.2950
L   3.0955,   3.2878
L   3.0922,   3.2810
L   3.0879,   3.2747
L   3.0829,   3.2690
L   3.0771,   3.2641
L   3.0708,   3.2599
L   3.0640,   3.2566
L   3.0568,   3.2543
L   3.0493,   3.2529
L   3.0417,   3.2525
L   3.0342,   3.2531
L   3.0268,   3.2546
L   3.0196,   3.2572
L   3.0137,   3.2602
L   3.0074,   3.2644
L   3.0017,   3.2694
L   2.9967,   3.2751
L   2.9926,   3.2814
L   2.9892,   3.2882
L   2.9868,   3.2954
L   2.9854,   3.3029
L   2.9850,   3.3105
L   2.9855,   3.3180
L   2.9871,   3.3254
L   2.9896,   3.3326
L   2.9931,   3.3393
L   2.9974,   3.3456
L   3.0024,   3.3512
L   3.0082,   3.3561
L   3.0137,   3.3598
L   3.0205,   3.3631
L   3.0277,   3.3655
L   3.0352,   3.3670
L   3.0427,   3.3675
L   3.0503,   3.3669
L   3.0577,   3.3654
L   3.0649,   3.3629
L   3.0717,   3.3595
L   3.0779,   3.3552
L   3.0836,   3.3502
L   3.0885,   3.3444
L   3.0926,   3.3381
L   3.0959,   3.3312
L   3.0982,   3.3240
L   3.0996,   3.3165
L   3.1000,   3.3100"
/>
<path style="fill:none;stroke:#000000;stroke-width:0.001;stroke-opacity:1"
d = "M   3.0533,   3.0664
L   3.0606,   3.0645
L   3.0677,   3.0616
L   3.0742,   3.0579
L   3.0803,   3.0533
L   3.0856,   3.0479
L   3.0903,   3.0419
L   3.0941,   3.0354
L   3.0970,   3.0284
L   3.0989,   3.0210
L   3.0999,   3.0135
L   3.1000,   3.0100
L   3.0995,   3.0024
L   3.0980,   2.9950
L   3.0955,   2.9878
L   3.0922,   2.9810
L   3.0879,   2.9747
L   3.0829,   2.9690
L   3.0771,   2.9641
L   3.0708,   2.9599
L   3.0640,   2.9566
L   3.0568,   2.9543
L   3.0493,   2.9529
L   3.0417,   2.9525
L   3.0342,   2.9531
L   3.0268,   2.9546
L   3.0196,   2.9572
L   3.0137,   2.9602
L   3.0074,   2.9644
L   3.0017,   2.9694
L   2.9967,   2.9751
L   2.9926,   2.9814
L   2.9892,   2.9882
L   2.9868,   2.9954
L   2.9854,   3.0029
L   2.9850,   3.0105
L   2.9855,   3.0180
L   2.9871,   3.0254
L   2.9896,   3.0326
L   2.9931,   3.0393
L   2.9974,   3.0456
L   3.0024,   3.0512
L   3.0082,   3.0561
L   3.0137,   3.0598
L   3.0205,   3.0631
L   3.0277,   3.0655
L   3.0352,   3.0670
L   3.0427,   3.0675
L   3.0503,   3.0669
L   3.0533,   3.0664"
/>
<path style="fill:none;stroke:#000000;stroke-width:0.001;stroke-opacity:1"
d = "M   3.0432,   3.8775
L   3.0356,   3.8779
L   3.0282,   3.8793
L   3.0210,   3.8816
L   3.0141,   3.8849
L   3.0137,   3.8852
L   3.0074,   3.8894
L   3.0017,   3.8944
L   2.9967,   3.9001
L   2.9926,   3.9064
L   2.9892,   3.9132
L   2.9868,   3.9204
L   2.9854,   3.9279
L   2.9850,   3.9355
L   2.9855,   3.9430
L   2.9871,   3.9504
L   2.9896,   3.9576
L   2.9931,   3.9643
L   2.9974,   3.9706
L   3.0024,   3.9762
L   3.0082,   3.9811
L   3.0137,   3.9848
L   3.0205,   3.9881
L   3.0277,   3.9905
L   3.0352,   3.9920
L   3.0427,   3.9925
L   3.0503,   3.9919
L   3.0577,   3.9904
L   3.0649,   3.9879
L   3.0717,   3.9845
L   3.0779,   3.9802
L   3.0836,   3.9752
L   3.0885,   3.9694
L   3.0926,   3.9631
L   3.0959,   3.9562
L   3.0982,   3.9490
L   3.0996,   3.9415
L   3.1000,   3.9350
L   3.0995,   3.9274
L   3.0980,   3.9200
L   3.0955,   3.9128
L   3.0922,   3.9060
L   3.0879,   3.8997
L   3.0829,   3.8940
L   3.0771,   3.8891
L   3.0708,   3.8849
L   3.0640,   3.8816
L   3.0568,   3.8793
L   3.0493,   3.8779
L   3.0432,   3.8775"
/>
<path style="fill:none;stroke:#000000;stroke-width:0.001;stroke-opacity:1"
d = "M   2.8485,   3.9221
L   2.8463,   3.9148
L   2.8432,   3.9079
L   2.8392,   3.9015
L   2.8344,   3.8956
L   2.8289,   3.8904
L   2.8227,   3.8860
L   2.8160,   3.8825
L   2.8089,   3.8799
L   2.8015,   3.8782
L   2.7940,   3.8775
L   2.7864,   3.8778
L   2.7789,   3.8791
L   2.7717,   3.8814
L   2.7648,   3.8846
L   2.7637,   3.8852
L   2.7574,   3.8894
L   2.7517,   3.8944
L   2.7467,   3.9001
L   2.7426,   3.9064
L   2.7392,   3.9132
L   2.7368,   3.9204
L   2.7354,   3.9279
L   2.7350,   3.9355
L   2.7355,   3.9430
L   2.7371,   3.9504
L   2.7396,   3.9576
L   2.7431,   3.9643
L   2.7474,   3.9706
L   2.7524,   3.9762
L   2.7582,   3.9811
L   2.7637,   3.9848
L   2.7705,   3.9881
L   2.7777,   3.9905
L   2.7852,   3.9920
L   2.7927,   3.9925
L   2.8003,   3.9919
L   2.8077,   3.9904
L   2.8149,   3.9879
L   2.8217,   3.9845
L   2.8279,   3.9802
L   2.8336,   3.9752
L   2.8385,   3.9694
L   2.8426,   3.9631
L   2.8459,   3.9562
L   2.8482,   3.9490
L   2.8496,   3.9415
L   2.8500,   3.9350
L   2.8495,   3.9274
L   2.8485,   3.9221"
/>
<path style="fill:none;stroke:#000000;stroke-width:0.001;stroke-opacity:1"
d = "M   2.8026,   4.1784
L   2.7951,   4.1775
L   2.7875,   4.1777
L   2.7800,   4.1788
L   2.7727,   4.1810
L   2.7658,   4.1840
L   2.7637,   4.1852
L   2.7574,   4.1894
L   2.7517,   4.1944
L   2.7467,   4.2001
L   2.7426,   4.2064
L   2.7392,   4.2132
L   2.7368,   4.2204
L   2.7354,   4.2279
L   2.7350,   4.2355
L   2.7355,   4.2430
L   2.7371,   4.2504
L   2.7396,   4.2576
L   2.7431,   4.2643
L   2.7474,   4.2706
L   2.7524,   4.2762
L   2.7582,   4.2811
L   2.7637,   4.2848
L   2.7705,   4.2881
L   2.7777,   4.2905
L   2.7852,   4.2920
L   2.7927,   4.2925
L   2.8003,   4.2919
L   2.8077,   4.2904
L   2.8149,   4.2879
L   2.8217,   4.2845
L   2.8279,   4.2802
L   2.8336,   4.2752
L   2.8385,   4.2694
L   2.8426,   4.2631
L   2.8459,   4.2562
L   2.8482,   4.2490
L   2.8496,   4.2415
L   2.8500,   4.2350
L   2.8495,   4.2274
L   2.8480,   4.2200
L   2.8455,   4.2128
L   2.8422,   4.2060
L   2.8379,   4.1997
L   2.8329,   4.1940
L   2.8271,   4.1891
L   2.8208,   4.1849
L   2.8140,   4.1816
L   2.8068,   4.1793
L   2.8026,   4.1784"
/>
<path style="fill:none;stroke:#000000;stroke-width:0.001;stroke-opacity:1"
d = "M   2.9865,   4.2218
L   2.9853,   4.2292
L   2.9850,   4.2368
L   2.9858,   4.2444
L   2.9875,   4.2517
L   2.9902,   4.2588
L   2.9938,   4.2655
L   2.9982,   4.2717
L   3.0034,   4.2772
L   3.0093,   4.2819
L   3.0137,   4.2848
L   3.0205,   4.2881
L   3.0277,   4.2905
L   3.0352,   4.2920
L   3.0427,   4.2925
L   3.0503,   4.2919
L   3.0577,   4.2904
L   3.0649,   4.2879
L   3.0717,   4.2845
L   3.0779,   4.2802
L   3.0836,   4.2752
L   3.0885,   4.2694
L   3.0926,   4.2631
L   3.0959,   4.2562
L   3.0982,   4.2490
L   3.0996,   4.2415
L   3.1000,   4.2350
L   3.0995,   4.2274
L   3.0980,   4.2200
L   3.0955,   4.2128
L   3.0922,   4.2060
L   3.0879,   4.1997
L   3.0829,   4.1940
L   3.0771,   4.1891
L   3.0708,   4.1849
L   3.0640,   4.1816
L   3.0568,   4.1793
L   3.0493,   4.1779
L   3.0417,   4.1775
L   3.0342,   4.1781
L   3.0268,   4.1796
L   3.0196,   4.1822
L   3.0137,   4.1852
L   3.0074,   4.1894
L   3.0017,   4.1944
L   2.9967,   4.2001
L   2.9926,   4.2064
L   2.9892,   4.2132
L   2.9868,   4.2204
L   2.9865,   4.2218"
/>
<path style="fill:none;stroke:#000000;stroke-width:0.001;stroke-opacity:1"
d = "M   3.1824,   5.8904
L   3.1745,   5.8918
L   3.1668,   5.8942
L   3.1594,   5.8976
L   3.1575,   5.8987
L   3.1508,   5.9031
L   3.1446,   5.9084
L   3.1392,   5.9143
L   3.1346,   5.9209
L   3.1308,   5.9281
L   3.1279,   5.9356
L   3.1260,   5.9434
L   3.1251,   5.9514
L   3.1251,   5.9595
L   3.1262,   5.9675
L   3.1282,   5.9753
L   3.1312,   5.9828
L   3.1351,   5.9898
L   3.1399,   5.9964
L   3.1454,   6.0022
L   3.1516,   6.0074
L   3.1575,   6.0112
L   3.1647,   6.0148
L   3.1723,   6.0175
L   3.1802,   6.0192
L   3.1882,   6.0199
L   3.1963,   6.0197
L   3.2042,   6.0184
L   3.2120,   6.0161
L   3.2194,   6.0129
L   3.2263,   6.0088
L   3.2327,   6.0039
L   3.2385,   5.9983
L   3.2434,   5.9919
L   3.2476,   5.9850
L   3.2509,   5.9777
L   3.2532,   5.9699
L   3.2546,   5.9620
L   3.2550,   5.9550
L   3.2545,   5.9469
L   3.2530,   5.9390
L   3.2505,   5.9313
L   3.2471,   5.9240
L   3.2429,   5.9172
L   3.2378,   5.9109
L   3.2320,   5.9053
L   3.2255,   5.9005
L   3.2185,   5.8965
L   3.2110,   5.8935
L   3.2032,   5.8913
L   3.1953,   5.8902
L   3.1872,   5.8900
L   3.1824,   5.8904"
/>
<path style="fill:none;stroke:#000000;stroke-width:0.001;stroke-opacity:1"
d = "M   0.5600,   5.9534
L   0.5593,   5.9454
L   0.5576,   5.9375
L   0.5549,   5.9299
L   0.5514,   5.9226
L   0.5469,   5.9159
L   0.5417,   5.9098
L   0.5357,   5.9043
L   0.5292,   5.8997
L   0.5221,   5.8959
L   0.5145,   5.8930
L   0.5067,   5.8910
L   0.4987,   5.8901
L   0.4906,   5.8901
L   0.4827,   5.8911
L   0.4748,   5.8932
L   0.4673,   5.8961
L   0.4625,   5.8987
L   0.4558,   5.9031
L   0.4496,   5.9084
L   0.4442,   5.9143
L   0.4396,   5.9209
L   0.4358,   5.9281
L   0.4329,   5.9356
L   0.4310,   5.9434
L   0.4301,   5.9514
L   0.4301,   5.9595
L   0.4312,   5.9675
L   0.4332,   5.9753
L   0.4362,   5.9828
L   0.4401,   5.9898
L   0.4449,   5.9964
L   0.4504,   6.0022
L   0.4566,   6.0074
L   0.4625,   6.0112
L   0.4697,   6.0148
L   0.4773,   6.0175
L   0.4852,   6.0192
L   0.4932,   6.0199
L   0.5013,   6.0197
L   0.5092,   6.0184
L   0.5170,   6.0161
L   0.5244,   6.0129
L   0.5313,   6.0088
L   0.5377,   6.0039
L   0.5435,   5.9983
L   0.5484,   5.9919
L   0.5526,   5.9850
L   0.5559,   5.9777
L   0.5582,   5.9699
L   0.5596,   5.9620
L   0.5600,   5.9550
L   0.5600,   5.9534
L   0.5600,   5.9534
L   0.5600,   5.9534"
/>
<path style="fill:none;stroke:#000000;stroke-width:0.001;stroke-opacity:1"
d = "M   3.0250,   5.8650
L   0.6600,   5.8650
L   0.6600,   6.0800
L   0.6595,   6.0821
L   0.6581,   6.0839
L   0.6561,   6.0848
L   0.6550,   6.0850
L   0.2550,   6.0850
L   0.2528,   6.0845
L   0.2511,   6.0831
L   0.2501,   6.0810
L   0.2500,   6.0800
L   0.2500,   5.7050
L   0.2505,   5.7028
L   0.2514,   5.7015
L   0.4875,   5.4530
L   0.4875,   2.1630
L   0.4880,   2.1608
L   0.4894,   2.1590
L   0.4914,   2.1581
L   0.4925,   2.1580
L   0.7425,   2.1580
L   0.7447,   2.1585
L   0.7464,   2.1599
L   0.7474,   2.1619
L   0.7475,   2.1630
L   0.7475,   2.2442
L   0.8625,   2.2442
L   0.8625,   1.9417
L   0.7475,   1.9417
L   0.7475,   2.0230
L   0.7470,   2.0251
L   0.7456,   2.0269
L   0.7436,   2.0278
L   0.7425,   2.0280
L   0.4925,   2.0280
L   0.4903,   2.0275
L   0.4886,   2.0261
L   0.4876,   2.0240
L   0.4875,   2.0230
L   0.4875,   1.1444
L   0.4880,   1.1422
L   0.4894,   1.1404
L   0.4914,   1.1395
L   0.4925,   1.1394
L   0.7425,   1.1394
L   0.7447,   1.1399
L   0.7464,   1.1413
L   0.7474,   1.1433
L   0.7475,   1.1444
L   0.7475,   1.2256
L   0.8625,   1.2256
L   0.8625,   0.9231
L   0.7475,   0.9231
L   0.7475,   1.0044
L   0.7470,   1.0065
L   0.7456,   1.0083
L   0.7436,   1.0092
L   0.7425,   1.0094
L   0.4925,   1.0094
L   0.4903,   1.0089
L   0.4886,   1.0075
L   0.4876,   1.0054
L   0.4875,   1.0044
L   0.4875,   0.2550
L   0.4880,   0.2528
L   0.4894,   0.2510
L   0.4914,   0.2501
L   0.4925,   0.2500
L   1.4225,   0.2500
L   1.4247,   0.2505
L   1.4264,   0.2519
L   1.4274,   0.2539
L   1.4275,   0.2550
L   1.4275,   0.5050
L   1.4270,   0.5071
L   1.4256,   0.5089
L   1.4236,   0.5098
L   1.4225,   0.5100
L   1.3412,   0.5100
L   1.3412,   0.6250
L   1.6437,   0.6250
L   1.6437,   0.5100
L   1.5625,   0.5100
L   1.5603,   0.5095
L   1.5586,   0.5081
L   1.5576,   0.5060
L   1.5575,   0.5050
L   1.5575,   0.2550
L   1.5580,   0.2528
L   1.5594,   0.2510
L   1.5614,   0.2501
L   1.5625,   0.2500
L   2.6225,   0.2500
L   2.6247,   0.2505
L   2.6264,   0.2519
L   2.6274,   0.2539
L   2.6275,   0.2550
L   2.6275,   0.5050
L   2.6270,   0.5071
L   2.6256,   0.5089
L   2.6236,   0.5098
L   2.6225,   0.5100
L   2.5412,   0.5100
L   2.5412,   0.6250
L   2.8437,   0.6250
L   2.8437,   0.5100
L   2.7625,   0.5100
L   2.7603,   0.5095
L   2.7586,   0.5081
L   2.7576,   0.5060
L   2.7575,   0.5050
L   2.7575,   0.2550
L   2.7580,   0.2528
L   2.7594,   0.2510
L   2.7614,   0.2501
L   2.7625,   0.2500
L   3.1925,   0.2500
L   3.1947,   0.2505
L   3.1964,   0.2519
L   3.1974,   0.2539
L   3.1975,   0.2550
L   3.1975,   5.4530
L   3.4336,   5.7015
L   3.4347,   5.7034
L   3.4350,   5.7050
L   3.4350,   6.0800
L   3.4345,   6.0821
L   3.4331,   6.0839
L   3.4311,   6.0848
L   3.4300,   6.0850
L   3.0300,   6.0850
L   3.0278,   6.0845
L   3.0261,   6.0831
L   3.0251,   6.0810
L   3.0250,   6.0800
L   3.0250,   5.8650
L   3.0250,   5.8650
L   3.0250,   5.8650"
/>
<path style="fill:none;stroke:#000000;stroke-width:0.001;stroke-opacity:1"
d = "M   6.5250,   3.3100
L   6.5245,   3.3024
L   6.5230,   3.2950
L   6.5205,   3.2878
L   6.5172,   3.2810
L   6.5129,   3.2747
L   6.5079,   3.2690
L   6.5021,   3.2641
L   6.4958,   3.2599
L   6.4890,   3.2566
L   6.4818,   3.2543
L   6.4743,   3.2529
L   6.4667,   3.2525
L   6.4592,   3.2531
L   6.4518,   3.2546
L   6.4446,   3.2572
L   6.4387,   3.2602
L   6.4324,   3.2644
L   6.4267,   3.2694
L   6.4217,   3.2751
L   6.4176,   3.2814
L   6.4142,   3.2882
L   6.4118,   3.2954
L   6.4104,   3.3029
L   6.4100,   3.3105
L   6.4105,   3.3180
L   6.4121,   3.3254
L   6.4146,   3.3326
L   6.4181,   3.3393
L   6.4224,   3.3456
L   6.4274,   3.3512
L   6.4332,   3.3561
L   6.4387,   3.3598
L   6.4455,   3.3631
L   6.4527,   3.3655
L   6.4602,   3.3670
L   6.4677,   3.3675
L   6.4753,   3.3669
L   6.4827,   3.3654
L   6.4899,   3.3629
L   6.4967,   3.3595
L   6.5029,   3.3552
L   6.5086,   3.3502
L   6.5135,   3.3444
L   6.5176,   3.3381
L   6.5209,   3.3312
L   6.5232,   3.3240
L   6.5246,   3.3165
L   6.5250,   3.3100"
/>
<path style="fill:none;stroke:#000000;stroke-width:0.001;stroke-opacity:1"
d = "M   6.4783,   3.0664
L   6.4856,   3.0645
L   6.4927,   3.0616
L   6.4992,   3.0579
L   6.5053,   3.0533
L   6.5106,   3.0479
L   6.5153,   3.0419
L   6.5191,   3.0354
L   6.5220,   3.0284
L   6.5239,   3.0210
L   6.5249,   3.0135
L   6.5250,   3.0100
L   6.5245,   3.0024
L   6.5230,   2.9950
L   6.5205,   2.9878
L   6.5172,   2.9810
L   6.5129,   2.9747
L   6.5079,   2.9690
L   6.5021,   2.9641
L   6.4958,   2.9599
L   6.4890,   2.9566
L   6.4818,   2.9543
L   6.4743,   2.9529
L   6.4667,   2.9525
L   6.4592,   2.9531
L   6.4518,   2.9546
L   6.4446,   2.9572
L   6.4387,   2.9602
L   6.4324,   2.9644
L   6.4267,   2.9694
L   6.4217,   2.9751
L   6.4176,   2.9814
L   6.4142,   2.9882
L   6.4118,   2.9954
L   6.4104,   3.0029
L   6.4100,   3.0105
L   6.4105,   3.0180
L   6.4121,   3.0254
L   6.4146,   3.0326
L   6.4181,   3.0393
L   6.4224,   3.0456
L   6.4274,   3.0512
L   6.4332,   3.0561
L   6.4387,   3.0598
L   6.4455,   3.0631
L   6.4527,   3.0655
L   6.4602,   3.0670
L   6.4677,   3.0675
L   6.4753,   3.0669
L   6.4783,   3.0664"
/>
<path style="fill:none;stroke:#000000;stroke-width:0.001;stroke-opacity:1"
d = "M   6.4682,   3.8775
L   6.4606,   3.8779
L   6.4532,   3.8793
L   6.4460,   3.8816
L   6.4391,   3.8849
L   6.4387,   3.8852
L   6.4324,   3.8894
L   6.4267,   3.8944
L   6.4217,   3.9001
L   6.4176,   3.9064
L   6.4142,   3.9132
L   6.4118,   3.9204
L   6.4104,   3.9279
L   6.4100,   3.9355
L   6.4105,   3.9430
L   6.4121,   3.9504
L   6.4146,   3.9576
L   6.4181,   3.9643
L   6.4224,   3.9706
L   6.4274,   3.9762
L   6.4332,   3.9811
L   6.4387,   3.9848
L   6.4455,   3.9881
L   6.4527,   3.9905
L   6.4602,   3.9920
L   6.4677,   3.9925
L   6.4753,   3.9919
L   6.4827,   3.9904
L   6.4899,   3.9879
L   6.4967,   3.9845
L   6.5029,   3.9802
L   6.5086,   3.9752
L   6.5135,   3.9694
L   6.5176,   3.9631
L   6.5209,   3.9562
L   6.5232,   3.9490
L   6.5246,   3.9415
L   6.5250,   3.9350
L   6.5245,   3.9274
L   6.5230,   3.9200
L   6.5205,   3.9128
L   6.5172,   3.9060
L   6.5129,   3.8997
L   6.5079,   3.8940
L   6.5021,   3.8891
L   6.4958,   3.8849
L   6.4890,   3.8816
L   6.4818,   3.8793
L   6.4743,   3.8779
L   6.4682,   3.8775"
/>
<path style="fill:none;stroke:#000000;stroke-width:0.001;stroke-opacity:1"
d = "M   6.2735,   3.9221
L   6.2713,   3.9148
L   6.2682,   3.9079
L   6.2642,   3.9015
L   6.2594,   3.8956
L   6.2539,   3.8904
L   6.2477,   3.8860
L   6.2410,   3.8825
L   6.2339,   3.8799
L   6.2265,   3.8782
L   6.2190,   3.8775
L   6.2114,   3.8778
L   6.2039,   3.8791
L   6.1967,   3.8814
L   6.1898,   3.8846
L   6.1887,   3.8852
L   6.1824,   3.8894
L   6.1767,   3.8944
L   6.1717,   3.9001
L   6.1676,   3.9064
L   6.1642,   3.9132
L   6.1618,   3.9204
L   6.1604,   3.9279
L   6.1600,   3.9355
L   6.1605,   3.9430
L   6.1621,   3.9504
L   6.1646,   3.9576
L   6.1681,   3.9643
L   6.1724,   3.9706
L   6.1774,   3.9762
L   6.1832,   3.9811
L   6.1887,   3.9848
L   6.1955,   3.9881
L   6.2027,   3.9905
L   6.2102,   3.9920
L   6.2177,   3.9925
L   6.2253,   3.9919
L   6.2327,   3.9904
L   6.2399,   3.9879
L   6.2467,   3.9845
L   6.2529,   3.9802
L   6.2586,   3.9752
L   6.2635,   3.9694
L   6.2676,   3.9631
L   6.2709,   3.9562
L   6.2732,   3.9490
L   6.2746,   3.9415
L   6.2750,   3.9350
L   6.2745,   3.9274
L   6.2735,   3.9221"
/>
<path style="fill:none;stroke:#000000;stroke-width:0.001;stroke-opacity:1"
d = "M   6.2276,   4.1784
L   6.2201,   4.1775
L   6.2125,   4.1777
L   6.2050,   4.1788
L   6.1977,   4.1810
L   6.1908,   4.1840
L   6.1887,   4.1852
L   6.1824,   4.1894
L   6.1767,   4.1944
L   6.1717,   4.2001
L   6.1676,   4.2064
L   6.1642,   4.2132
L   6.1618,   4.2204
L   6.1604,   4.2279
L   6.1600,   4.2355
L   6.1605,   4.2430
L   6.1621,   4.2504
L   6.1646,   4.2576
L   6.1681,   4.2643
L   6.1724,   4.2706
L   6.1774,   4.2762
L   6.1832,   4.2811
L   6.1887,   4.2848
L   6.1955,   4.2881
L   6.2027,   4.2905
L   6.2102,   4.2920
L   6.2177,   4.2925
L   6.2253,   4.2919
L   6.2327,   4.2904
L   6.2399,   4.2879
L   6.2467,   4.2845
L   6.2529,   4.2802
L   6.2586,   4.2752
L   6.2635,   4.2694
L   6.2676,   4.2631
L   6.2709,   4.2562
L   6.2732,   4.2490
L   6.2746,   4.2415
L   6.2750,   4.2350
L   6.2745,   4.2274
L   6.2730,   4.2200
L   6.2705,   4.2128
L   6.2672,   4.2060
L   6.2629,   4.1997
L   6.2579,   4.1940
L   6.2521,   4.1891
L   6.2458,   4.1849
L   6.2390,   4.1816
L   6.2318,   4.1793
L   6.2276,   4.1784"
/>
<path style="fill:none;stroke:#000000;stroke-width:0.001;stroke-opacity:1"
d = "M   6.4115,   4.2218
L   6.4103,   4.2292
L   6.4100,   4.2368
L   6.4108,   4.2444
L   6.4125,   4.2517
L   6.4152,   4.2588
L   6.4188,   4.2655
L   6.4232,   4.2717
L   6.4284,   4.2772
L   6.4343,   4.2819
L   6.4387,   4.2848
L   6.4455,   4.2881
L   6.4527,   4.2905
L   6.4602,   4.2920
L   6.4677,   4.2925
L   6.4753,   4.2919
L   6.4827,   4.2904
L   6.4899,   4.2879
L   6.4967,   4.2845
L   6.5029,   4.2802
L   6.5086,   4.2752
L   6.5135,   4.2694
L   6.5176,   4.2631
L   6.5209,   4.2562
L   6.5232,   4.2490
L   6.5246,   4.2415
L   6.5250,   4.2350
L   6.5245,   4.2274
L   6.5230,   4.2200
L   6.5205,   4.2128
L   6.5172,   4.2060
L   6.5129,   4.1997
L   6.5079,   4.1940
L   6.5021,   4.1891
L   6.4958,   4.1849
L   6.4890,   4.1816
L   6.4818,   4.1793
L   6.4743,   4.1779
L   6.4667,   4.1775
L   6.4592,   4.1781
L   6.4518,   4.1796
L   6.4446,   4.1822
L   6.4387,   4.1852
L   6.4324,   4.1894
L   6.4267,   4.1944
L   6.4217,   4.2001
L   6.4176,   4.2064
L   6.4142,   4.2132
L   6.4118,   4.2204
L   6.4115,   4.2218"
/>
<path style="fill:none;stroke:#000000;stroke-width:0.001;stroke-opacity:1"
d = "M   6.6074,   5.8904
L   6.5995,   5.8918
L   6.5918,   5.8942
L   6.5844,   5.8976
L   6.5825,   5.8987
L   6.5758,   5.9031
L   6.5696,   5.9084
L   6.5642,   5.9143
L   6.5596,   5.9209
L   6.5558,   5.9281
L   6.5529,   5.9356
L   6.5510,   5.9434
L   6.5501,   5.9514
L   6.5501,   5.9595
L   6.5512,   5.9675
L   6.5532,   5.9753
L   6.5562,   5.9828
L   6.5601,   5.9898
L   6.5649,   5.9964
L   6.5704,   6.0022
L   6.5766,   6.0074
L   6.5825,   6.0112
L   6.5897,   6.0148
L   6.5973,   6.0175
L   6.6052,   6.0192
L   6.6132,   6.0199
L   6.6213,   6.0197
L   6.6292,   6.0184
L   6.6370,   6.0161
L   6.6444,   6.0129
L   6.6513,   6.0088
L   6.6577,   6.0039
L   6.6635,   5.9983
L   6.6684,   5.9919
L   6.6726,   5.9850
L   6.6759,   5.9777
L   6.6782,   5.9699
L   6.6796,   5.9620
L   6.6800,   5.9550
L   6.6795,   5.9469
L   6.6780,   5.9390
L   6.6755,   5.9313
L   6.6721,   5.9240
L   6.6679,   5.9172
L   6.6628,   5.9109
L   6.6570,   5.9053
L   6.6505,   5.9005
L   6.6435,   5.8965
L   6.6360,   5.8935
L   6.6282,   5.8913
L   6.6203,   5.8902
L   6.6122,   5.8900
L   6.6074,   5.8904"
/>
<path style="fill:none;stroke:#000000;stroke-width:0.001;stroke-opacity:1"
d = "M   3.9850,   5.9534
L   3.9843,   5.9454
L   3.9826,   5.9375
L   3.9799,   5.9299
L   3.9764,   5.9226
L   3.9719,   5.9159
L   3.9667,   5.9098
L   3.9607,   5.9043
L   3.9542,   5.8997
L   3.9471,   5.8959
L   3.9395,   5.8930
L   3.9317,   5.8910
L   3.9237,   5.8901
L   3.9156,   5.8901
L   3.9077,   5.8911
L   3.8998,   5.8932
L   3.8923,   5.8961
L   3.8875,   5.8987
L   3.8808,   5.9031
L   3.8746,   5.9084
L   3.8692,   5.9143
L   3.8646,   5.9209
L   3.8608,   5.9281
L   3.8579,   5.9356
L   3.8560,   5.9434
L   3.8551,   5.9514
L   3.8551,   5.9595
L   3.8562,   5.9675
L   3.8582,   5.9753
L   3.8612,   5.9828
L   3.8651,   5.9898
L   3.8699,   5.9964
L   3.8754,   6.0022
L   3.8816,   6.0074
L   3.8875,   6.0112
L   3.8947,   6.0148
L   3.9023,   6.0175
L   3.9102,   6.0192
L   3.9182,   6.0199
L   3.9263,   6.0197
L   3.9342,   6.0184
L   3.9420,   6.0161
L   3.9494,   6.0129
L   3.9563,   6.0088
L   3.9627,   6.0039
L   3.9685,   5.9983
L   3.9734,   5.9919
L   3.9776,   5.9850
L   3.9809,   5.9777
L   3.9832,   5.9699
L   3.9846,   5.9620
L   3.9850,   5.9550
L   3.9850,   5.9534
L   3.9850,   5.9534
L   3.9850,   5.9534"
/>
<path style="fill:none;stroke:#000000;stroke-width:0.001;stroke-opacity:1"
d = "M   6.4500,   5.8650
L   4.0850,   5.8650
L   4.0850,   6.0800
L   4.0845,   6.0821
L   4.0831,   6.0839
L   4.0811,   6.0848
L   4.0800,   6.0850
L   3.6800,   6.0850
L   3.6778,   6.0845
L   3.6761,   6.0831
L   3.6751,   6.0810
L   3.6750,   6.0800
L   3.6750,   5.7050
L   3.6755,   5.7028
L   3.6764,   5.7015
L   3.9125,   5.4530
L   3.9125,   2.1630
L   3.9130,   2.1608
L   3.9144,   2.1590
L   3.9164,   2.1581
L   3.9175,   2.1580
L   4.1675,   2.1580
L   4.1697,   2.1585
L   4.1714,   2.1599
L   4.1724,   2.1619
L   4.1725,   2.1630
L   4.1725,   2.2442
L   4.2875,   2.2442
L   4.2875,   1.9417
L   4.1725,   1.9417
L   4.1725,   2.0230
L   4.1720,   2.0251
L   4.1706,   2.0269
L   4.1686,   2.0278
L   4.1675,   2.0280
L   3.9175,   2.0280
L   3.9153,   2.0275
L   3.9136,   2.0261
L   3.9126,   2.0240
L   3.9125,   2.0230
L   3.9125,   1.1444
L   3.9130,   1.1422
L   3.9144,   1.1404
L   3.9164,   1.1395
L   3.9175,   1.1394
L   4.1675,   1.1394
L   4.1697,   1.1399
L   4.1714,   1.1413
L   4.1724,   1.1433
L   4.1725,   1.1444
L   4.1725,   1.2256
L   4.2875,   1.2256
L   4.2875,   0.9231
L   4.1725,   0.9231
L   4.1725,   1.0044
L   4.1720,   1.0065
L   4.1706,   1.0083
L   4.1686,   1.0092
L   4.1675,   1.0094
L   3.9175,   1.0094
L   3.9153,   1.0089
L   3.9136,   1.0075
L   3.9126,   1.0054
L   3.9125,   1.0044
L   3.9125,   0.2550
L   3.9130,   0.2528
L   3.9144,   0.2510
L   3.9164,   0.2501
L   3.9175,   0.2500
L   4.8475,   0.2500
L   4.8497,   0.2505
L   4.8514,   0.2519
L   4.8524,   0.2539
L   4.8525,   0.2550
L   4.8525,   0.5050
L   4.8520,   0.5071
L   4.8506,   0.5089
L   4.8486,   0.5098
L   4.8475,   0.5100
L   4.7662,   0.5100
L   4.7662,   0.6250
L   5.0687,   0.6250
L   5.0687,   0.5100
L   4.9875,   0.5100
L   4.9853,   0.5095
L   4.9836,   0.5081
L   4.9826,   0.5060
L   4.9825,   0.5050
L   4.9825,   0.2550
L   4.9830,   0.2528
L   4.9844,   0.2510
L   4.9864,   0.2501
L   4.9875,   0.2500
L   6.0475,   0.2500
L   6.0497,   0.2505
L   6.0514,   0.2519
L   6.0524,   0.2539
L   6.0525,   0.2550
L   6.0525,   0.5050
L   6.0520,   0.5071
L   6.0506,   0.5089
L   6.0486,   0.5098
L   6.0475,   0.5100
L   5.9662,   0.5100
L   5.9662,   0.6250
L   6.2687,   0.6250
L   6.2687,   0.5100
L   6.1875,   0.5100
L   6.1853,   0.5095
L   6.1836,   0.5081
L   6.1826,   0.5060
L   6.1825,   0.5050
L   6.1825,   0.2550
L   6.1830,   0.2528
L   6.1844,   0.2510
L   6.1864,   0.2501
L   6.1875,   0.2500
L   6.6175,   0.2500
L   6.6197,   0.2505
L   6.6214,   0.2519
L   6.6224,   0.2539
L   6.6225,   0.2550
L   6.6225,   5.4530
L   6.8586,   5.7015
L   6.8597,   5.7034
L   6.8600,   5.7050
L   6.8600,   6.0800
L   6.8595,   6.0821
L   6.8581,   6.0839
L   6.8561,   6.0848
L   6.8550,   6.0850
L   6.4550,   6.0850
L   6.4528,   6.0845
L   6.4511,   6.0831
L   6.4501,   6.0810
L   6.4500,   6.0800
L   6.4500,   5.8650
L   6.4500,   5.8650
L   6.4500,   5.8650"
/>
<path style="fill:none;stroke:#000000;stroke-width:0.001;stroke-opacity:1"
d = "M   8.6588,   3.3017
L   8.6583,   3.2937
L   8.6568,   3.2857
L   8.6543,   3.2781
L   8.6510,   3.2707
L   8.6467,   3.2639
L   8.6416,   3.2576
L   8.6358,   3.2521
L   8.6293,   3.2473
L   8.6223,   3.2433
L   8.6148,   3.2402
L   8.6071,   3.2381
L   8.5991,   3.2369
L   8.5910,   3.2368
L   8.5830,   3.2376
L   8.5752,   3.2394
L   8.5676,   3.2422
L   8.5613,   3.2454
L   8.5546,   3.2499
L   8.5485,   3.2551
L   8.5430,   3.2611
L   8.5384,   3.2677
L   8.5346,   3.2748
L   8.5318,   3.2823
L   8.5298,   3.2902
L   8.5289,   3.2982
L   8.5290,   3.3062
L   8.5300,   3.3142
L   8.5321,   3.3220
L   8.5351,   3.3295
L   8.5389,   3.3366
L   8.5437,   3.3431
L   8.5492,   3.3490
L   8.5554,   3.3541
L   8.5613,   3.3580
L   8.5685,   3.3616
L   8.5761,   3.3643
L   8.5840,   3.3660
L   8.5920,   3.3667
L   8.6001,   3.3664
L   8.6081,   3.3651
L   8.6158,   3.3629
L   8.6232,   3.3597
L   8.6301,   3.3556
L   8.6365,   3.3507
L   8.6423,   3.3450
L   8.6473,   3.3387
L   8.6514,   3.3318
L   8.6547,   3.3244
L   8.6570,   3.3167
L   8.6584,   3.3087
L   8.6588,   3.3017"
/>
<path style="fill:none;stroke:#000000;stroke-width:0.001;stroke-opacity:1"
d = "M   9.5288,   3.3017
L   9.5293,   3.3097
L   9.5308,   3.3177
L   9.5333,   3.3253
L   9.5366,   3.3327
L   9.5409,   3.3395
L   9.5460,   3.3458
L   9.5518,   3.3513
L   9.5583,   3.3561
L   9.5613,   3.3580
L   9.5685,   3.3616
L   9.5761,   3.3643
L   9.5840,   3.3660
L   9.5920,   3.3667
L   9.6001,   3.3664
L   9.6081,   3.3651
L   9.6158,   3.3629
L   9.6232,   3.3597
L   9.6301,   3.3556
L   9.6365,   3.3507
L   9.6423,   3.3450
L   9.6473,   3.3387
L   9.6514,   3.3318
L   9.6547,   3.3244
L   9.6570,   3.3167
L   9.6584,   3.3087
L   9.6588,   3.3017
L   9.6583,   3.2937
L   9.6568,   3.2857
L   9.6543,   3.2781
L   9.6510,   3.2707
L   9.6467,   3.2639
L   9.6416,   3.2576
L   9.6358,   3.2521
L   9.6293,   3.2473
L   9.6223,   3.2433
L   9.6148,   3.2402
L   9.6071,   3.2381
L   9.5991,   3.2369
L   9.5910,   3.2368
L   9.5830,   3.2376
L   9.5752,   3.2394
L   9.5676,   3.2422
L   9.5613,   3.2454
L   9.5546,   3.2499
L   9.5485,   3.2551
L   9.5430,   3.2611
L   9.5384,   3.2677
L   9.5346,   3.2748
L   9.5318,   3.2823
L   9.5298,   3.2902
L   9.5289,   3.2982
L   9.5288,   3.3017"
/>
<path style="fill:none;stroke:#000000;stroke-width:0.001;stroke-opacity:1"
d = "M   9.5902,   2.3566
L   9.5976,   2.3566
L   9.6050,   2.3555
L   9.6121,   2.3536
L   9.6189,   2.3506
L   9.6253,   2.3468
L   9.6311,   2.3421
L   9.6362,   2.3368
L   9.6405,   2.3307
L   9.6440,   2.3242
L   9.6466,   2.3172
L   9.6482,   2.3100
L   9.6488,   2.3026
L   9.6488,   2.3017
L   9.6483,   2.2943
L   9.6468,   2.2870
L   9.6444,   2.2800
L   9.6410,   2.2734
L   9.6367,   2.2673
L   9.6317,   2.2619
L   9.6260,   2.2571
L   9.6197,   2.2532
L   9.6130,   2.2502
L   9.6059,   2.2480
L   9.5985,   2.2469
L   9.5911,   2.2468
L   9.5838,   2.2476
L   9.5766,   2.2495
L   9.5697,   2.2523
L   9.5663,   2.2541
L   9.5601,   2.2582
L   9.5546,   2.2631
L   9.5498,   2.2687
L   9.5457,   2.2750
L   9.5426,   2.2817
L   9.5403,   2.2888
L   9.5391,   2.2961
L   9.5388,   2.3035
L   9.5396,   2.3109
L   9.5413,   2.3181
L   9.5440,   2.3250
L   9.5476,   2.3315
L   9.5520,   2.3374
L   9.5572,   2.3427
L   9.5630,   2.3473
L   9.5663,   2.3493
L   9.5730,   2.3526
L   9.5800,   2.3549
L   9.5873,   2.3563
L   9.5902,   2.3566"
/>
<path style="fill:none;stroke:#000000;stroke-width:0.001;stroke-opacity:1"
d = "M   8.6487,   2.3047
L   8.6488,   2.3017
L   8.6483,   2.2943
L   8.6468,   2.2870
L   8.6444,   2.2800
L   8.6410,   2.2734
L   8.6367,   2.2673
L   8.6317,   2.2619
L   8.6260,   2.2571
L   8.6197,   2.2532
L   8.6130,   2.2502
L   8.6059,   2.2480
L   8.5985,   2.2469
L   8.5911,   2.2468
L   8.5838,   2.2476
L   8.5766,   2.2495
L   8.5697,   2.2523
L   8.5663,   2.2541
L   8.5601,   2.2582
L   8.5546,   2.2631
L   8.5498,   2.2687
L   8.5457,   2.2750
L   8.5426,   2.2817
L   8.5403,   2.2888
L   8.5391,   2.2961
L   8.5388,   2.3035
L   8.5396,   2.3109
L   8.5413,   2.3181
L   8.5440,   2.3250
L   8.5476,   2.3315
L   8.5520,   2.3374
L   8.5572,   2.3427
L   8.5630,   2.3473
L   8.5663,   2.3493
L   8.5730,   2.3526
L   8.5800,   2.3549
L   8.5873,   2.3563
L   8.5947,   2.3567
L   8.6021,   2.3561
L   8.6093,   2.3545
L   8.6163,   2.3519
L   8.6228,   2.3484
L   8.6288,   2.3441
L   8.6342,   2.3390
L   8.6389,   2.3332
L   8.6427,   2.3269
L   8.6456,   2.3200
L   8.6476,   2.3129
L   8.6487,   2.3056
L   8.6487,   2.3047"
/>
<path style="fill:none;stroke:#000000;stroke-width:0.001;stroke-opacity:1"
d = "M   8.6014,   1.9641
L   8.6086,   1.9626
L   8.6156,   1.9601
L   8.6222,   1.9567
L   8.6283,   1.9524
L   8.6337,   1.9474
L   8.6385,   1.9417
L   8.6424,   1.9354
L   8.6454,   1.9286
L   8.6475,   1.9215
L   8.6486,   1.9142
L   8.6488,   1.9096
L   8.6483,   1.9022
L   8.6468,   1.8949
L   8.6444,   1.8879
L   8.6410,   1.8813
L   8.6367,   1.8752
L   8.6317,   1.8698
L   8.6260,   1.8650
L   8.6197,   1.8611
L   8.6130,   1.8581
L   8.6059,   1.8559
L   8.5985,   1.8548
L   8.5911,   1.8547
L   8.5838,   1.8555
L   8.5766,   1.8574
L   8.5697,   1.8602
L   8.5663,   1.8620
L   8.5601,   1.8661
L   8.5546,   1.8710
L   8.5498,   1.8766
L   8.5457,   1.8829
L   8.5426,   1.8896
L   8.5403,   1.8967
L   8.5391,   1.9040
L   8.5388,   1.9114
L   8.5396,   1.9188
L   8.5413,   1.9260
L   8.5440,   1.9329
L   8.5476,   1.9394
L   8.5520,   1.9453
L   8.5572,   1.9506
L   8.5630,   1.9552
L   8.5663,   1.9572
L   8.5730,   1.9605
L   8.5800,   1.9628
L   8.5873,   1.9642
L   8.5947,   1.9646
L   8.6014,   1.9641"
/>
<path style="fill:none;stroke:#000000;stroke-width:0.001;stroke-opacity:1"
d = "M   8.5945,   1.3667
L   8.6026,   1.3661
L   8.6105,   1.3645
L   8.6181,   1.3620
L   8.6254,   1.3585
L   8.6322,   1.3541
L   8.6384,   1.3490
L   8.6439,   1.3431
L   8.6486,   1.3366
L   8.6525,   1.3295
L   8.6555,   1.3220
L   8.6576,   1.3142
L   8.6586,   1.3062
L   8.6588,   1.3017
L   8.6583,   1.2937
L   8.6568,   1.2857
L   8.6543,   1.2781
L   8.6510,   1.2707
L   8.6467,   1.2639
L   8.6416,   1.2576
L   8.6358,   1.2521
L   8.6293,   1.2473
L   8.6223,   1.2433
L   8.6148,   1.2402
L   8.6071,   1.2381
L   8.5991,   1.2369
L   8.5910,   1.2368
L   8.5830,   1.2376
L   8.5752,   1.2394
L   8.5676,   1.2422
L   8.5613,   1.2454
L   8.5546,   1.2499
L   8.5485,   1.2551
L   8.5430,   1.2611
L   8.5384,   1.2677
L   8.5346,   1.2748
L   8.5318,   1.2823
L   8.5298,   1.2902
L   8.5289,   1.2982
L   8.5290,   1.3062
L   8.5300,   1.3142
L   8.5321,   1.3220
L   8.5351,   1.3295
L   8.5389,   1.3366
L   8.5437,   1.3431
L   8.5492,   1.3490
L   8.5554,   1.3541
L   8.5613,   1.3580
L   8.5685,   1.3616
L   8.5761,   1.3643
L   8.5840,   1.3660
L   8.5920,   1.3667
L   8.5945,   1.3667"
/>
<path style="fill:none;stroke:#000000;stroke-width:0.001;stroke-opacity:1"
d = "M   9.4567,   1.2737
L   9.4580,   1.2816
L   9.4604,   1.2893
L   9.4636,   1.2967
L   9.4678,   1.3036
L   9.4728,   1.3100
L   9.4785,   1.3156
L   9.4849,   1.3205
L   9.4888,   1.3230
L   9.4960,   1.3266
L   9.5036,   1.3293
L   9.5115,   1.3310
L   9.5195,   1.3317
L   9.5276,   1.3314
L   9.5356,   1.3301
L   9.5433,   1.3279
L   9.5507,   1.3247
L   9.5576,   1.3206
L   9.5640,   1.3157
L   9.5698,   1.3100
L   9.5748,   1.3037
L   9.5789,   1.2968
L   9.5822,   1.2894
L   9.5845,   1.2817
L   9.5859,   1.2737
L   9.5863,   1.2667
L   9.5858,   1.2587
L   9.5843,   1.2507
L   9.5818,   1.2431
L   9.5785,   1.2357
L   9.5742,   1.2289
L   9.5691,   1.2226
L   9.5633,   1.2171
L   9.5568,   1.2123
L   9.5498,   1.2083
L   9.5423,   1.2052
L   9.5346,   1.2031
L   9.5266,   1.2019
L   9.5185,   1.2018
L   9.5105,   1.2026
L   9.5027,   1.2044
L   9.4951,   1.2072
L   9.4888,   1.2104
L   9.4821,   1.2149
L   9.4760,   1.2201
L   9.4705,   1.2261
L   9.4659,   1.2327
L   9.4621,   1.2398
L   9.4593,   1.2473
L   9.4573,   1.2552
L   9.4564,   1.2632
L   9.4565,   1.2712
L   9.4567,   1.2737"
/>
<path style="fill:none;stroke:#000000;stroke-width:0.001;stroke-opacity:1"
d = "M   7.7313,   1.2670
L   7.7313,   1.2667
L   7.7308,   1.2587
L   7.7293,   1.2507
L   7.7268,   1.2431
L   7.7235,   1.2357
L   7.7192,   1.2289
L   7.7141,   1.2226
L   7.7083,   1.2171
L   7.7018,   1.2123
L   7.6948,   1.2083
L   7.6873,   1.2052
L   7.6796,   1.2031
L   7.6716,   1.2019
L   7.6635,   1.2018
L   7.6555,   1.2026
L   7.6477,   1.2044
L   7.6401,   1.2072
L   7.6338,   1.2104
L   7.6271,   1.2149
L   7.6210,   1.2201
L   7.6155,   1.2261
L   7.6109,   1.2327
L   7.6071,   1.2398
L   7.6043,   1.2473
L   7.6023,   1.2552
L   7.6014,   1.2632
L   7.6015,   1.2712
L   7.6025,   1.2792
L   7.6046,   1.2870
L   7.6076,   1.2945
L   7.6114,   1.3016
L   7.6162,   1.3081
L   7.6217,   1.3140
L   7.6279,   1.3191
L   7.6338,   1.3230
L   7.6410,   1.3266
L   7.6486,   1.3293
L   7.6565,   1.3310
L   7.6645,   1.3317
L   7.6726,   1.3314
L   7.6806,   1.3301
L   7.6883,   1.3279
L   7.6957,   1.3247
L   7.7026,   1.3206
L   7.7090,   1.3157
L   7.7148,   1.3100
L   7.7198,   1.3037
L   7.7239,   1.2968
L   7.7272,   1.2894
L   7.7295,   1.2817
L   7.7309,   1.2737
L   7.7313,   1.2670"
/>
<path style="fill:none;stroke:#000000;stroke-width:0.001;stroke-opacity:1"
d = "M   7.6010,   2.2472
L   7.5936,   2.2467
L   7.5862,   2.2472
L   7.5790,   2.2487
L   7.5720,   2.2512
L   7.5663,   2.2541
L   7.5601,   2.2582
L   7.5546,   2.2631
L   7.5498,   2.2687
L   7.5457,   2.2750
L   7.5426,   2.2817
L   7.5403,   2.2888
L   7.5391,   2.2961
L   7.5388,   2.3035
L   7.5396,   2.3109
L   7.5413,   2.3181
L   7.5440,   2.3250
L   7.5476,   2.3315
L   7.5520,   2.3374
L   7.5572,   2.3427
L   7.5630,   2.3473
L   7.5663,   2.3493
L   7.5730,   2.3526
L   7.5800,   2.3549
L   7.5873,   2.3563
L   7.5947,   2.3567
L   7.6021,   2.3561
L   7.6093,   2.3545
L   7.6163,   2.3519
L   7.6228,   2.3484
L   7.6288,   2.3441
L   7.6342,   2.3390
L   7.6389,   2.3332
L   7.6427,   2.3269
L   7.6456,   2.3200
L   7.6476,   2.3129
L   7.6487,   2.3056
L   7.6488,   2.3017
L   7.6483,   2.2943
L   7.6468,   2.2870
L   7.6444,   2.2800
L   7.6410,   2.2734
L   7.6367,   2.2673
L   7.6317,   2.2619
L   7.6260,   2.2571
L   7.6197,   2.2532
L   7.6130,   2.2502
L   7.6059,   2.2480
L   7.6010,   2.2472"
/>
<path style="fill:none;stroke:#000000;stroke-width:0.001;stroke-opacity:1"
d = "M   7.5942,   3.2367
L   7.5862,   3.2371
L   7.5783,   3.2386
L   7.5706,   3.2410
L   7.5632,   3.2443
L   7.5613,   3.2454
L   7.5546,   3.2499
L   7.5485,   3.2551
L   7.5430,   3.2611
L   7.5384,   3.2677
L   7.5346,   3.2748
L   7.5318,   3.2823
L   7.5298,   3.2902
L   7.5289,   3.2982
L   7.5290,   3.3062
L   7.5300,   3.3142
L   7.5321,   3.3220
L   7.5351,   3.3295
L   7.5389,   3.3366
L   7.5437,   3.3431
L   7.5492,   3.3490
L   7.5554,   3.3541
L   7.5613,   3.3580
L   7.5685,   3.3616
L   7.5761,   3.3643
L   7.5840,   3.3660
L   7.5920,   3.3667
L   7.6001,   3.3664
L   7.6081,   3.3651
L   7.6158,   3.3629
L   7.6232,   3.3597
L   7.6301,   3.3556
L   7.6365,   3.3507
L   7.6423,   3.3450
L   7.6473,   3.3387
L   7.6514,   3.3318
L   7.6547,   3.3244
L   7.6570,   3.3167
L   7.6584,   3.3087
L   7.6588,   3.3017
L   7.6583,   3.2937
L   7.6568,   3.2857
L   7.6543,   3.2781
L   7.6510,   3.2707
L   7.6467,   3.2639
L   7.6416,   3.2576
L   7.6358,   3.2521
L   7.6293,   3.2473
L   7.6223,   3.2433
L   7.6148,   3.2402
L   7.6071,   3.2381
L   7.5991,   3.2369
L   7.5942,   3.2367
L   7.5942,   3.2367
L   7.5942,   3.2367"
/>
<path style="fill:none;stroke:#000000;stroke-width:0.001;stroke-opacity:1"
d = "M  10.1863,   1.6978
L  10.1858,   1.7121
L  10.1843,   1.7263
L  10.1818,   1.7404
L  10.1783,   1.7543
L  10.1739,   1.7679
L  10.1686,   1.7812
L  10.1623,   1.7940
L  10.1551,   1.8064
L  10.1471,   1.8183
L  10.1383,   1.8296
L  10.1287,   1.8402
L  10.1184,   1.8502
L  10.1094,   1.8578
L  10.0988,   1.8669
L  10.0889,   1.8767
L  10.0798,   1.8873
L  10.0714,   1.8984
L  10.0638,   1.9102
L  10.0571,   1.9224
L  10.0513,   1.9351
L  10.0464,   1.9482
L  10.0424,   1.9616
L  10.0394,   1.9752
L  10.0374,   1.9890
L  10.0364,   2.0030
L  10.0363,   2.0100
L  10.0363,   2.5934
L  10.0368,   2.6074
L  10.0383,   2.6212
L  10.0408,   2.6350
L  10.0442,   2.6485
L  10.0487,   2.6618
L  10.0540,   2.6746
L  10.0603,   2.6871
L  10.0674,   2.6991
L  10.0754,   2.7106
L  10.0842,   2.7214
L  10.0938,   2.7316
L  10.1040,   2.7411
L  10.1094,   2.7456
L  10.1203,   2.7550
L  10.1305,   2.7650
L  10.1399,   2.7758
L  10.1486,   2.7872
L  10.1565,   2.7991
L  10.1635,   2.8116
L  10.1696,   2.8246
L  10.1748,   2.8379
L  10.1790,   2.8516
L  10.1823,   2.8655
L  10.1846,   2.8796
L  10.1860,   2.8939
L  10.1863,   2.9056
L  10.1863,   3.1620
L  10.1858,   3.1642
L  10.1844,   3.1659
L  10.1824,   3.1669
L  10.1813,   3.1670
L  10.0153,   3.1670
L  10.0131,   3.1665
L  10.0114,   3.1651
L  10.0106,   3.1637
L   9.9956,   3.1225
L   9.9953,   3.1208
L   9.9953,   2.9120
L   9.9948,   2.9082
L   9.9933,   2.9046
L   9.9910,   2.9015
L   9.9879,   2.8991
L   9.9844,   2.8976
L   9.9806,   2.8970
L   9.9803,   2.8970
L   9.9023,   2.8970
L   9.8985,   2.8975
L   9.8949,   2.8990
L   9.8918,   2.9013
L   9.8894,   2.9044
L   9.8879,   2.9079
L   9.8873,   2.9117
L   9.8873,   2.9120
L   9.8873,   3.1208
L   9.8870,   3.1225
L   9.8720,   3.1637
L   9.8708,   3.1656
L   9.8689,   3.1667
L   9.8673,   3.1670
L   9.7863,   3.1670
L   9.7863,   3.3892
L   9.7858,   3.3994
L   9.7843,   3.4096
L   9.7818,   3.4195
L   9.7784,   3.4292
L   9.7740,   3.4384
L   9.7688,   3.4472
L   9.7627,   3.4555
L   9.7559,   3.4631
L   9.7483,   3.4700
L   9.7401,   3.4762
L   9.7314,   3.4815
L   9.7221,   3.4859
L   9.7125,   3.4895
L   9.7026,   3.4920
L   9.6924,   3.4936
L   9.6822,   3.4942
L   9.6813,   3.4942
L   7.5063,   3.4942
L   7.4961,   3.4937
L   7.4859,   3.4922
L   7.4760,   3.4897
L   7.4663,   3.4863
L   7.4571,   3.4819
L   7.4483,   3.4767
L   7.4400,   3.4706
L   7.4324,   3.4638
L   7.4255,   3.4562
L   7.4193,   3.4480
L   7.4140,   3.4393
L   7.4096,   3.4300
L   7.4060,   3.4204
L   7.4035,   3.4105
L   7.4019,   3.4003
L   7.4013,   3.3901
L   7.4013,   3.3892
L   7.4013,   3.1670
L   7.3203,   3.1670
L   7.3181,   3.1665
L   7.3164,   3.1651
L   7.3156,   3.1637
L   7.3006,   3.1225
L   7.3003,   3.1208
L   7.3003,   2.9120
L   7.2998,   2.9082
L   7.2983,   2.9046
L   7.2960,   2.9015
L   7.2929,   2.8991
L   7.2894,   2.8976
L   7.2856,   2.8970
L   7.2853,   2.8970
L   7.2073,   2.8970
L   7.2035,   2.8975
L   7.1999,   2.8990
L   7.1968,   2.9013
L   7.1944,   2.9044
L   7.1929,   2.9079
L   7.1923,   2.9117
L   7.1923,   2.9120
L   7.1923,   3.1208
L   7.1920,   3.1225
L   7.1770,   3.1637
L   7.1758,   3.1656
L   7.1739,   3.1667
L   7.1723,   3.1670
L   7.0063,   3.1670
L   7.0041,   3.1665
L   7.0024,   3.1651
L   7.0014,   3.1631
L   7.0013,   3.1620
L   7.0013,   2.9056
L   7.0018,   2.8913
L   7.0033,   2.8771
L   7.0058,   2.8630
L   7.0093,   2.8491
L   7.0137,   2.8355
L   7.0190,   2.8222
L   7.0253,   2.8094
L   7.0325,   2.7970
L   7.0405,   2.7851
L   7.0493,   2.7738
L   7.0589,   2.7632
L   7.0692,   2.7532
L   7.0782,   2.7456
L   7.0888,   2.7365
L   7.0987,   2.7267
L   7.1078,   2.7161
L   7.1162,   2.7050
L   7.1238,   2.6932
L   7.1305,   2.6810
L   7.1363,   2.6683
L   7.1412,   2.6552
L   7.1452,   2.6418
L   7.1482,   2.6282
L   7.1502,   2.6144
L   7.1512,   2.6004
L   7.1513,   2.5934
L   7.1513,   2.0100
L   7.1508,   1.9960
L   7.1493,   1.9822
L   7.1468,   1.9684
L   7.1434,   1.9549
L   7.1389,   1.9416
L   7.1336,   1.9288
L   7.1273,   1.9163
L   7.1202,   1.9043
L   7.1122,   1.8928
L   7.1034,   1.8820
L   7.0938,   1.8718
L   7.0836,   1.8623
L   7.0782,   1.8578
L   7.0673,   1.8484
L   7.0571,   1.8384
L   7.0477,   1.8276
L   7.0390,   1.8162
L   7.0311,   1.8043
L   7.0241,   1.7918
L   7.0180,   1.7788
L   7.0128,   1.7655
L   7.0086,   1.7518
L   7.0053,   1.7379
L   7.0030,   1.7238
L   7.0016,   1.7095
L   7.0013,   1.6978
L   7.0013,   1.4414
L   7.0018,   1.4392
L   7.0032,   1.4375
L   7.0052,   1.4365
L   7.0063,   1.4364
L   7.1723,   1.4364
L   7.1745,   1.4369
L   7.1762,   1.4383
L   7.1770,   1.4397
L   7.1920,   1.4809
L   7.1923,   1.4826
L   7.1923,   1.6914
L   7.1928,   1.6952
L   7.1943,   1.6988
L   7.1966,   1.7019
L   7.1997,   1.7043
L   7.2032,   1.7058
L   7.2070,   1.7064
L   7.2073,   1.7064
L   7.2853,   1.7064
L   7.2891,   1.7059
L   7.2927,   1.7044
L   7.2958,   1.7021
L   7.2982,   1.6990
L   7.2997,   1.6955
L   7.3003,   1.6917
L   7.3003,   1.6914
L   7.3003,   1.4826
L   7.3006,   1.4809
L   7.3156,   1.4397
L   7.3168,   1.4378
L   7.3187,   1.4367
L   7.3203,   1.4364
L   7.4013,   1.4364
L   7.4013,   1.1642
L   7.4018,   1.1568
L   7.4033,   1.1495
L   7.4057,   1.1425
L   7.4091,   1.1359
L   7.4134,   1.1298
L   7.4184,   1.1244
L   7.4241,   1.1196
L   7.4304,   1.1157
L   7.4371,   1.1127
L   7.4442,   1.1105
L   7.4516,   1.1094
L   7.4563,   1.1092
L   7.4683,   1.1092
L   7.4705,   1.1097
L   7.4722,   1.1111
L   7.4732,   1.1131
L   7.4733,   1.1142
L   7.4733,   1.2947
L   7.4738,   1.3087
L   7.4753,   1.3225
L   7.4778,   1.3363
L   7.4812,   1.3498
L   7.4857,   1.3631
L   7.4910,   1.3759
L   7.4973,   1.3884
L   7.5044,   1.4004
L   7.5124,   1.4119
L   7.5212,   1.4227
L   7.5308,   1.4329
L   7.5410,   1.4424
L   7.5519,   1.4511
L   7.5634,   1.4591
L   7.5754,   1.4662
L   7.5879,   1.4724
L   7.6009,   1.4777
L   7.6141,   1.4820
L   7.6277,   1.4854
L   7.6414,   1.4878
L   7.6553,   1.4893
L   7.6683,   1.4897
L   8.2813,   1.4897
L   8.2880,   1.4892
L   8.2945,   1.4877
L   8.3008,   1.4853
L   8.3066,   1.4819
L   8.3118,   1.4777
L   8.3164,   1.4728
L   8.3202,   1.4673
L   8.3231,   1.4613
L   8.3251,   1.4549
L   8.3262,   1.4482
L   8.3263,   1.4447
L   8.3263,   1.3642
L   8.3258,   1.3575
L   8.3243,   1.3510
L   8.3219,   1.3447
L   8.3185,   1.3389
L   8.3143,   1.3337
L   8.3094,   1.3291
L   8.3039,   1.3253
L   8.2979,   1.3224
L   8.2915,   1.3204
L   8.2848,   1.3193
L   8.2813,   1.3192
L   7.8613,   1.3192
L   7.8546,   1.3197
L   7.8481,   1.3212
L   7.8418,   1.3236
L   7.8360,   1.3270
L   7.8307,   1.3312
L   7.8262,   1.3361
L   7.8224,   1.3416
L   7.8210,   1.3441
L   7.8147,   1.3556
L   7.8075,   1.3666
L   7.7995,   1.3771
L   7.7908,   1.3869
L   7.7813,   1.3960
L   7.7711,   1.4043
L   7.7604,   1.4119
L   7.7490,   1.4186
L   7.7373,   1.4245
L   7.7251,   1.4294
L   7.7125,   1.4334
L   7.6997,   1.4364
L   7.6868,   1.4385
L   7.6736,   1.4395
L   7.6605,   1.4396
L   7.6474,   1.4387
L   7.6344,   1.4367
L   7.6215,   1.4338
L   7.6090,   1.4299
L   7.5967,   1.4251
L   7.5849,   1.4194
L   7.5735,   1.4127
L   7.5627,   1.4053
L   7.5525,   1.3970
L   7.5429,   1.3880
L   7.5341,   1.3782
L   7.5260,   1.3679
L   7.5187,   1.3569
L   7.5123,   1.3454
L   7.5067,   1.3335
L   7.5021,   1.3212
L   7.4984,   1.3086
L   7.4957,   1.2957
L   7.4940,   1.2826
L   7.4933,   1.2695
L   7.4933,   1.2667
L   7.4933,   1.1642
L   7.4938,   1.1568
L   7.4953,   1.1495
L   7.4977,   1.1425
L   7.5011,   1.1359
L   7.5054,   1.1298
L   7.5104,   1.1244
L   7.5161,   1.1196
L   7.5224,   1.1157
L   7.5291,   1.1127
L   7.5362,   1.1105
L   7.5436,   1.1094
L   7.5483,   1.1092
L   9.6393,   1.1092
L   9.6467,   1.1097
L   9.6540,   1.1112
L   9.6610,   1.1136
L   9.6676,   1.1170
L   9.6737,   1.1213
L   9.6791,   1.1263
L   9.6839,   1.1320
L   9.6878,   1.1383
L   9.6908,   1.1450
L   9.6930,   1.1521
L   9.6941,   1.1595
L   9.6943,   1.1642
L   9.6943,   1.2667
L   9.6938,   1.2798
L   9.6923,   1.2929
L   9.6898,   1.3058
L   9.6864,   1.3185
L   9.6819,   1.3309
L   9.6766,   1.3429
L   9.6704,   1.3545
L   9.6633,   1.3656
L   9.6553,   1.3761
L   9.6466,   1.3859
L   9.6372,   1.3951
L   9.6271,   1.4036
L   9.6164,   1.4112
L   9.6052,   1.4180
L   9.5934,   1.4239
L   9.5813,   1.4290
L   9.5688,   1.4331
L   9.5560,   1.4362
L   9.5430,   1.4383
L   9.5299,   1.4395
L   9.5168,   1.4396
L   9.5036,   1.4388
L   9.4906,   1.4370
L   9.4778,   1.4341
L   9.4652,   1.4303
L   9.4529,   1.4256
L   9.4410,   1.4200
L   9.4296,   1.4134
L   9.4187,   1.4060
L   9.4085,   1.3978
L   9.3988,   1.3889
L   9.3899,   1.3792
L   9.3817,   1.3689
L   9.3744,   1.3580
L   9.3678,   1.3466
L   9.3666,   1.3441
L   9.3631,   1.3383
L   9.3589,   1.3331
L   9.3539,   1.3286
L   9.3483,   1.3249
L   9.3422,   1.3221
L   9.3358,   1.3202
L   9.3291,   1.3193
L   9.3263,   1.3192
L   8.9063,   1.3192
L   8.8996,   1.3197
L   8.8931,   1.3212
L   8.8868,   1.3236
L   8.8810,   1.3270
L   8.8758,   1.3312
L   8.8712,   1.3361
L   8.8674,   1.3416
L   8.8645,   1.3476
L   8.8625,   1.3540
L   8.8614,   1.3607
L   8.8613,   1.3642
L   8.8613,   1.4447
L   8.8618,   1.4514
L   8.8633,   1.4579
L   8.8657,   1.4642
L   8.8691,   1.4700
L   8.8733,   1.4752
L   8.8782,   1.4798
L   8.8837,   1.4836
L   8.8897,   1.4865
L   8.8961,   1.4885
L   8.9028,   1.4896
L   8.9063,   1.4897
L   9.5193,   1.4897
L   9.5333,   1.4892
L   9.5471,   1.4877
L   9.5609,   1.4852
L   9.5744,   1.4818
L   9.5877,   1.4773
L   9.6005,   1.4720
L   9.6130,   1.4657
L   9.6250,   1.4586
L   9.6365,   1.4506
L   9.6473,   1.4418
L   9.6575,   1.4322
L   9.6670,   1.4220
L   9.6757,   1.4111
L   9.6837,   1.3996
L   9.6908,   1.3876
L   9.6970,   1.3751
L   9.7023,   1.3621
L   9.7066,   1.3489
L   9.7100,   1.3353
L   9.7124,   1.3216
L   9.7139,   1.3077
L   9.7143,   1.2947
L   9.7143,   1.1142
L   9.7148,   1.1120
L   9.7162,   1.1103
L   9.7182,   1.1093
L   9.7193,   1.1092
L   9.7313,   1.1092
L   9.7387,   1.1097
L   9.7460,   1.1112
L   9.7530,   1.1136
L   9.7596,   1.1170
L   9.7657,   1.1213
L   9.7711,   1.1263
L   9.7759,   1.1320
L   9.7798,   1.1383
L   9.7828,   1.1450
L   9.7850,   1.1521
L   9.7861,   1.1595
L   9.7863,   1.1642
L   9.7863,   1.4364
L   9.8673,   1.4364
L   9.8695,   1.4369
L   9.8712,   1.4383
L   9.8720,   1.4397
L   9.8870,   1.4809
L   9.8873,   1.4826
L   9.8873,   1.6914
L   9.8878,   1.6952
L   9.8893,   1.6988
L   9.8916,   1.7019
L   9.8947,   1.7043
L   9.8982,   1.7058
L   9.9020,   1.7064
L   9.9023,   1.7064
L   9.9803,   1.7064
L   9.9841,   1.7059
L   9.9877,   1.7044
L   9.9908,   1.7021
L   9.9932,   1.6990
L   9.9947,   1.6955
L   9.9953,   1.6917
L   9.9953,   1.6914
L   9.9953,   1.4826
L   9.9956,   1.4809
L  10.0106,   1.4397
L  10.0118,   1.4378
L  10.0137,   1.4367
L  10.0153,   1.4364
L  10.1813,   1.4364
L  10.1835,   1.4369
L  10.1852,   1.4383
L  10.1862,   1.4403
L  10.1863,   1.4414
L  10.1863,   1.6978
L  10.1863,   1.6978
L  10.1863,   1.6978"
/>
<path style="fill:none;stroke:#000000;stroke-width:0.001;stroke-opacity:1"
d = "M   8.6588,   5.9267
L   8.6583,   5.9187
L   8.6568,   5.9107
L   8.6543,   5.9031
L   8.6510,   5.8957
L   8.6467,   5.8889
L   8.6416,   5.8826
L   8.6358,   5.8771
L   8.6293,   5.8723
L   8.6223,   5.8683
L   8.6148,   5.8652
L   8.6071,   5.8631
L   8.5991,   5.8619
L   8.5910,   5.8618
L   8.5830,   5.8626
L   8.5752,   5.8644
L   8.5676,   5.8672
L   8.5613,   5.8704
L   8.5546,   5.8749
L   8.5485,   5.8801
L   8.5430,   5.8861
L   8.5384,   5.8927
L   8.5346,   5.8998
L   8.5318,   5.9073
L   8.5298,   5.9152
L   8.5289,   5.9232
L   8.5290,   5.9312
L   8.5300,   5.9392
L   8.5321,   5.9470
L   8.5351,   5.9545
L   8.5389,   5.9616
L   8.5437,   5.9681
L   8.5492,   5.9740
L   8.5554,   5.9791
L   8.5613,   5.9830
L   8.5685,   5.9866
L   8.5761,   5.9893
L   8.5840,   5.9910
L   8.5920,   5.9917
L   8.6001,   5.9914
L   8.6081,   5.9901
L   8.6158,   5.9879
L   8.6232,   5.9847
L   8.6301,   5.9806
L   8.6365,   5.9757
L   8.6423,   5.9700
L   8.6473,   5.9637
L   8.6514,   5.9568
L   8.6547,   5.9494
L   8.6570,   5.9417
L   8.6584,   5.9337
L   8.6588,   5.9267"
/>
<path style="fill:none;stroke:#000000;stroke-width:0.001;stroke-opacity:1"
d = "M   9.5288,   5.9267
L   9.5293,   5.9347
L   9.5308,   5.9427
L   9.5333,   5.9503
L   9.5366,   5.9577
L   9.5409,   5.9645
L   9.5460,   5.9708
L   9.5518,   5.9763
L   9.5583,   5.9811
L   9.5613,   5.9830
L   9.5685,   5.9866
L   9.5761,   5.9893
L   9.5840,   5.9910
L   9.5920,   5.9917
L   9.6001,   5.9914
L   9.6081,   5.9901
L   9.6158,   5.9879
L   9.6232,   5.9847
L   9.6301,   5.9806
L   9.6365,   5.9757
L   9.6423,   5.9700
L   9.6473,   5.9637
L   9.6514,   5.9568
L   9.6547,   5.9494
L   9.6570,   5.9417
L   9.6584,   5.9337
L   9.6588,   5.9267
L   9.6583,   5.9187
L   9.6568,   5.9107
L   9.6543,   5.9031
L   9.6510,   5.8957
L   9.6467,   5.8889
L   9.6416,   5.8826
L   9.6358,   5.8771
L   9.6293,   5.8723
L   9.6223,   5.8683
L   9.6148,   5.8652
L   9.6071,   5.8631
L   9.5991,   5.8619
L   9.5910,   5.8618
L   9.5830,   5.8626
L   9.5752,   5.8644
L   9.5676,   5.8672
L   9.5613,   5.8704
L   9.5546,   5.8749
L   9.5485,   5.8801
L   9.5430,   5.8861
L   9.5384,   5.8927
L   9.5346,   5.8998
L   9.5318,   5.9073
L   9.5298,   5.9152
L   9.5289,   5.9232
L   9.5288,   5.9267"
/>
<path style="fill:none;stroke:#000000;stroke-width:0.001;stroke-opacity:1"
d = "M   9.5902,   4.9816
L   9.5976,   4.9816
L   9.6050,   4.9805
L   9.6121,   4.9786
L   9.6189,   4.9756
L   9.6253,   4.9718
L   9.6311,   4.9671
L   9.6362,   4.9618
L   9.6405,   4.9557
L   9.6440,   4.9492
L   9.6466,   4.9422
L   9.6482,   4.9350
L   9.6488,   4.9276
L   9.6488,   4.9267
L   9.6483,   4.9193
L   9.6468,   4.9120
L   9.6444,   4.9050
L   9.6410,   4.8984
L   9.6367,   4.8923
L   9.6317,   4.8869
L   9.6260,   4.8821
L   9.6197,   4.8782
L   9.6130,   4.8752
L   9.6059,   4.8730
L   9.5985,   4.8719
L   9.5911,   4.8718
L   9.5838,   4.8726
L   9.5766,   4.8745
L   9.5697,   4.8773
L   9.5663,   4.8791
L   9.5601,   4.8832
L   9.5546,   4.8881
L   9.5498,   4.8937
L   9.5457,   4.9000
L   9.5426,   4.9067
L   9.5403,   4.9138
L   9.5391,   4.9211
L   9.5388,   4.9285
L   9.5396,   4.9359
L   9.5413,   4.9431
L   9.5440,   4.9500
L   9.5476,   4.9565
L   9.5520,   4.9624
L   9.5572,   4.9677
L   9.5630,   4.9723
L   9.5663,   4.9743
L   9.5730,   4.9776
L   9.5800,   4.9799
L   9.5873,   4.9813
L   9.5902,   4.9816"
/>
<path style="fill:none;stroke:#000000;stroke-width:0.001;stroke-opacity:1"
d = "M   8.6487,   4.9297
L   8.6488,   4.9267
L   8.6483,   4.9193
L   8.6468,   4.9120
L   8.6444,   4.9050
L   8.6410,   4.8984
L   8.6367,   4.8923
L   8.6317,   4.8869
L   8.6260,   4.8821
L   8.6197,   4.8782
L   8.6130,   4.8752
L   8.6059,   4.8730
L   8.5985,   4.8719
L   8.5911,   4.8718
L   8.5838,   4.8726
L   8.5766,   4.8745
L   8.5697,   4.8773
L   8.5663,   4.8791
L   8.5601,   4.8832
L   8.5546,   4.8881
L   8.5498,   4.8937
L   8.5457,   4.9000
L   8.5426,   4.9067
L   8.5403,   4.9138
L   8.5391,   4.9211
L   8.5388,   4.9285
L   8.5396,   4.9359
L   8.5413,   4.9431
L   8.5440,   4.9500
L   8.5476,   4.9565
L   8.5520,   4.9624
L   8.5572,   4.9677
L   8.5630,   4.9723
L   8.5663,   4.9743
L   8.5730,   4.9776
L   8.5800,   4.9799
L   8.5873,   4.9813
L   8.5947,   4.9817
L   8.6021,   4.9811
L   8.6093,   4.9795
L   8.6163,   4.9769
L   8.6228,   4.9734
L   8.6288,   4.9691
L   8.6342,   4.9640
L   8.6389,   4.9582
L   8.6427,   4.9519
L   8.6456,   4.9450
L   8.6476,   4.9379
L   8.6487,   4.9306
L   8.6487,   4.9297"
/>
<path style="fill:none;stroke:#000000;stroke-width:0.001;stroke-opacity:1"
d = "M   8.6014,   4.5891
L   8.6086,   4.5876
L   8.6156,   4.5851
L   8.6222,   4.5817
L   8.6283,   4.5774
L   8.6337,   4.5724
L   8.6385,   4.5667
L   8.6424,   4.5604
L   8.6454,   4.5536
L   8.6475,   4.5465
L   8.6486,   4.5392
L   8.6488,   4.5346
L   8.6483,   4.5272
L   8.6468,   4.5199
L   8.6444,   4.5129
L   8.6410,   4.5063
L   8.6367,   4.5002
L   8.6317,   4.4948
L   8.6260,   4.4900
L   8.6197,   4.4861
L   8.6130,   4.4831
L   8.6059,   4.4809
L   8.5985,   4.4798
L   8.5911,   4.4797
L   8.5838,   4.4805
L   8.5766,   4.4824
L   8.5697,   4.4852
L   8.5663,   4.4870
L   8.5601,   4.4911
L   8.5546,   4.4960
L   8.5498,   4.5016
L   8.5457,   4.5079
L   8.5426,   4.5146
L   8.5403,   4.5217
L   8.5391,   4.5290
L   8.5388,   4.5364
L   8.5396,   4.5438
L   8.5413,   4.5510
L   8.5440,   4.5579
L   8.5476,   4.5644
L   8.5520,   4.5703
L   8.5572,   4.5756
L   8.5630,   4.5802
L   8.5663,   4.5822
L   8.5730,   4.5855
L   8.5800,   4.5878
L   8.5873,   4.5892
L   8.5947,   4.5896
L   8.6014,   4.5891"
/>
<path style="fill:none;stroke:#000000;stroke-width:0.001;stroke-opacity:1"
d = "M   8.5945,   3.9917
L   8.6026,   3.9911
L   8.6105,   3.9895
L   8.6181,   3.9870
L   8.6254,   3.9835
L   8.6322,   3.9791
L   8.6384,   3.9740
L   8.6439,   3.9681
L   8.6486,   3.9616
L   8.6525,   3.9545
L   8.6555,   3.9470
L   8.6576,   3.9392
L   8.6586,   3.9312
L   8.6588,   3.9267
L   8.6583,   3.9187
L   8.6568,   3.9107
L   8.6543,   3.9031
L   8.6510,   3.8957
L   8.6467,   3.8889
L   8.6416,   3.8826
L   8.6358,   3.8771
L   8.6293,   3.8723
L   8.6223,   3.8683
L   8.6148,   3.8652
L   8.6071,   3.8631
L   8.5991,   3.8619
L   8.5910,   3.8618
L   8.5830,   3.8626
L   8.5752,   3.8644
L   8.5676,   3.8672
L   8.5613,   3.8704
L   8.5546,   3.8749
L   8.5485,   3.8801
L   8.5430,   3.8861
L   8.5384,   3.8927
L   8.5346,   3.8998
L   8.5318,   3.9073
L   8.5298,   3.9152
L   8.5289,   3.9232
L   8.5290,   3.9312
L   8.5300,   3.9392
L   8.5321,   3.9470
L   8.5351,   3.9545
L   8.5389,   3.9616
L   8.5437,   3.9681
L   8.5492,   3.9740
L   8.5554,   3.9791
L   8.5613,   3.9830
L   8.5685,   3.9866
L   8.5761,   3.9893
L   8.5840,   3.9910
L   8.5920,   3.9917
L   8.5945,   3.9917"
/>
<path style="fill:none;stroke:#000000;stroke-width:0.001;stroke-opacity:1"
d = "M   9.4567,   3.8987
L   9.4580,   3.9066
L   9.4604,   3.9143
L   9.4636,   3.9217
L   9.4678,   3.9286
L   9.4728,   3.9350
L   9.4785,   3.9406
L   9.4849,   3.9455
L   9.4888,   3.9480
L   9.4960,   3.9516
L   9.5036,   3.9543
L   9.5115,   3.9560
L   9.5195,   3.9567
L   9.5276,   3.9564
L   9.5356,   3.9551
L   9.5433,   3.9529
L   9.5507,   3.9497
L   9.5576,   3.9456
L   9.5640,   3.9407
L   9.5698,   3.9350
L   9.5748,   3.9287
L   9.5789,   3.9218
L   9.5822,   3.9144
L   9.5845,   3.9067
L   9.5859,   3.8987
L   9.5863,   3.8917
L   9.5858,   3.8837
L   9.5843,   3.8757
L   9.5818,   3.8681
L   9.5785,   3.8607
L   9.5742,   3.8539
L   9.5691,   3.8476
L   9.5633,   3.8421
L   9.5568,   3.8373
L   9.5498,   3.8333
L   9.5423,   3.8302
L   9.5346,   3.8281
L   9.5266,   3.8269
L   9.5185,   3.8268
L   9.5105,   3.8276
L   9.5027,   3.8294
L   9.4951,   3.8322
L   9.4888,   3.8354
L   9.4821,   3.8399
L   9.4760,   3.8451
L   9.4705,   3.8511
L   9.4659,   3.8577
L   9.4621,   3.8648
L   9.4593,   3.8723
L   9.4573,   3.8802
L   9.4564,   3.8882
L   9.4565,   3.8962
L   9.4567,   3.8987"
/>
<path style="fill:none;stroke:#000000;stroke-width:0.001;stroke-opacity:1"
d = "M   7.7313,   3.8920
L   7.7313,   3.8917
L   7.7308,   3.8837
L   7.7293,   3.8757
L   7.7268,   3.8681
L   7.7235,   3.8607
L   7.7192,   3.8539
L   7.7141,   3.8476
L   7.7083,   3.8421
L   7.7018,   3.8373
L   7.6948,   3.8333
L   7.6873,   3.8302
L   7.6796,   3.8281
L   7.6716,   3.8269
L   7.6635,   3.8268
L   7.6555,   3.8276
L   7.6477,   3.8294
L   7.6401,   3.8322
L   7.6338,   3.8354
L   7.6271,   3.8399
L   7.6210,   3.8451
L   7.6155,   3.8511
L   7.6109,   3.8577
L   7.6071,   3.8648
L   7.6043,   3.8723
L   7.6023,   3.8802
L   7.6014,   3.8882
L   7.6015,   3.8962
L   7.6025,   3.9042
L   7.6046,   3.9120
L   7.6076,   3.9195
L   7.6114,   3.9266
L   7.6162,   3.9331
L   7.6217,   3.9390
L   7.6279,   3.9441
L   7.6338,   3.9480
L   7.6410,   3.9516
L   7.6486,   3.9543
L   7.6565,   3.9560
L   7.6645,   3.9567
L   7.6726,   3.9564
L   7.6806,   3.9551
L   7.6883,   3.9529
L   7.6957,   3.9497
L   7.7026,   3.9456
L   7.7090,   3.9407
L   7.7148,   3.9350
L   7.7198,   3.9287
L   7.7239,   3.9218
L   7.7272,   3.9144
L   7.7295,   3.9067
L   7.7309,   3.8987
L   7.7313,   3.8920"
/>
<path style="fill:none;stroke:#000000;stroke-width:0.001;stroke-opacity:1"
d = "M   7.6010,   4.8722
L   7.5936,   4.8717
L   7.5862,   4.8722
L   7.5790,   4.8737
L   7.5720,   4.8762
L   7.5663,   4.8791
L   7.5601,   4.8832
L   7.5546,   4.8881
L   7.5498,   4.8937
L   7.5457,   4.9000
L   7.5426,   4.9067
L   7.5403,   4.9138
L   7.5391,   4.9211
L   7.5388,   4.9285
L   7.5396,   4.9359
L   7.5413,   4.9431
L   7.5440,   4.9500
L   7.5476,   4.9565
L   7.5520,   4.9624
L   7.5572,   4.9677
L   7.5630,   4.9723
L   7.5663,   4.9743
L   7.5730,   4.9776
L   7.5800,   4.9799
L   7.5873,   4.9813
L   7.5947,   4.9817
L   7.6021,   4.9811
L   7.6093,   4.9795
L   7.6163,   4.9769
L   7.6228,   4.9734
L   7.6288,   4.9691
L   7.6342,   4.9640
L   7.6389,   4.9582
L   7.6427,   4.9519
L   7.6456,   4.9450
L   7.6476,   4.9379
L   7.6487,   4.9306
L   7.6488,   4.9267
L   7.6483,   4.9193
L   7.6468,   4.9120
L   7.6444,   4.9050
L   7.6410,   4.8984
L   7.6367,   4.8923
L   7.6317,   4.8869
L   7.6260,   4.8821
L   7.6197,   4.8782
L   7.6130,   4.8752
L   7.6059,   4.8730
L   7.6010,   4.8722"
/>
<path style="fill:none;stroke:#000000;stroke-width:0.001;stroke-opacity:1"
d = "M   7.5942,   5.8617
L   7.5862,   5.8621
L   7.5783,   5.8636
L   7.5706,   5.8660
L   7.5632,   5.8693
L   7.5613,   5.8704
L   7.5546,   5.8749
L   7.5485,   5.8801
L   7.5430,   5.8861
L   7.5384,   5.8927
L   7.5346,   5.8998
L   7.5318,   5.9073
L   7.5298,   5.9152
L   7.5289,   5.9232
L   7.5290,   5.9312
L   7.5300,   5.9392
L   7.5321,   5.9470
L   7.5351,   5.9545
L   7.5389,   5.9616
L   7.5437,   5.9681
L   7.5492,   5.9740
L   7.5554,   5.9791
L   7.5613,   5.9830
L   7.5685,   5.9866
L   7.5761,   5.9893
L   7.5840,   5.9910
L   7.5920,   5.9917
L   7.6001,   5.9914
L   7.6081,   5.9901
L   7.6158,   5.9879
L   7.6232,   5.9847
L   7.6301,   5.9806
L   7.6365,   5.9757
L   7.6423,   5.9700
L   7.6473,   5.9637
L   7.6514,   5.9568
L   7.6547,   5.9494
L   7.6570,   5.9417
L   7.6584,   5.9337
L   7.6588,   5.9267
L   7.6583,   5.9187
L   7.6568,   5.9107
L   7.6543,   5.9031
L   7.6510,   5.8957
L   7.6467,   5.8889
L   7.6416,   5.8826
L   7.6358,   5.8771
L   7.6293,   5.8723
L   7.6223,   5.8683
L   7.6148,   5.8652
L   7.6071,   5.8631
L   7.5991,   5.8619
L   7.5942,   5.8617
L   7.5942,   5.8617
L   7.5942,   5.8617"
/>
<path style="fill:none;stroke:#000000;stroke-width:0.001;stroke-opacity:1"
d = "M  10.1863,   4.3228
L  10.1858,   4.3371
L  10.1843,   4.3513
L  10.1818,   4.3654
L  10.1783,   4.3793
L  10.1739,   4.3929
L  10.1686,   4.4062
L  10.1623,   4.4190
L  10.1551,   4.4314
L  10.1471,   4.4433
L  10.1383,   4.4546
L  10.1287,   4.4652
L  10.1184,   4.4752
L  10.1094,   4.4828
L  10.0988,   4.4919
L  10.0889,   4.5017
L  10.0798,   4.5123
L  10.0714,   4.5234
L  10.0638,   4.5352
L  10.0571,   4.5474
L  10.0513,   4.5601
L  10.0464,   4.5732
L  10.0424,   4.5866
L  10.0394,   4.6002
L  10.0374,   4.6140
L  10.0364,   4.6280
L  10.0363,   4.6350
L  10.0363,   5.2184
L  10.0368,   5.2324
L  10.0383,   5.2462
L  10.0408,   5.2600
L  10.0442,   5.2735
L  10.0487,   5.2868
L  10.0540,   5.2996
L  10.0603,   5.3121
L  10.0674,   5.3241
L  10.0754,   5.3356
L  10.0842,   5.3464
L  10.0938,   5.3566
L  10.1040,   5.3661
L  10.1094,   5.3706
L  10.1203,   5.3800
L  10.1305,   5.3900
L  10.1399,   5.4008
L  10.1486,   5.4122
L  10.1565,   5.4241
L  10.1635,   5.4366
L  10.1696,   5.4496
L  10.1748,   5.4629
L  10.1790,   5.4766
L  10.1823,   5.4905
L  10.1846,   5.5046
L  10.1860,   5.5189
L  10.1863,   5.5306
L  10.1863,   5.7870
L  10.1858,   5.7892
L  10.1844,   5.7909
L  10.1824,   5.7919
L  10.1813,   5.7920
L  10.0153,   5.7920
L  10.0131,   5.7915
L  10.0114,   5.7901
L  10.0106,   5.7887
L   9.9956,   5.7475
L   9.9953,   5.7458
L   9.9953,   5.5370
L   9.9948,   5.5332
L   9.9933,   5.5296
L   9.9910,   5.5265
L   9.9879,   5.5241
L   9.9844,   5.5226
L   9.9806,   5.5220
L   9.9803,   5.5220
L   9.9023,   5.5220
L   9.8985,   5.5225
L   9.8949,   5.5240
L   9.8918,   5.5263
L   9.8894,   5.5294
L   9.8879,   5.5329
L   9.8873,   5.5367
L   9.8873,   5.5370
L   9.8873,   5.7458
L   9.8870,   5.7475
L   9.8720,   5.7887
L   9.8708,   5.7906
L   9.8689,   5.7917
L   9.8673,   5.7920
L   9.7863,   5.7920
L   9.7863,   6.0142
L   9.7858,   6.0244
L   9.7843,   6.0346
L   9.7818,   6.0445
L   9.7784,   6.0542
L   9.7740,   6.0634
L   9.7688,   6.0722
L   9.7627,   6.0805
L   9.7559,   6.0881
L   9.7483,   6.0950
L   9.7401,   6.1012
L   9.7314,   6.1065
L   9.7221,   6.1109
L   9.7125,   6.1145
L   9.7026,   6.1170
L   9.6924,   6.1186
L   9.6822,   6.1192
L   9.6813,   6.1192
L   7.5063,   6.1192
L   7.4961,   6.1187
L   7.4859,   6.1172
L   7.4760,   6.1147
L   7.4663,   6.1113
L   7.4571,   6.1069
L   7.4483,   6.1017
L   7.4400,   6.0956
L   7.4324,   6.0888
L   7.4255,   6.0812
L   7.4193,   6.0730
L   7.4140,   6.0643
L   7.4096,   6.0550
L   7.4060,   6.0454
L   7.4035,   6.0355
L   7.4019,   6.0253
L   7.4013,   6.0151
L   7.4013,   6.0142
L   7.4013,   5.7920
L   7.3203,   5.7920
L   7.3181,   5.7915
L   7.3164,   5.7901
L   7.3156,   5.7887
L   7.3006,   5.7475
L   7.3003,   5.7458
L   7.3003,   5.5370
L   7.2998,   5.5332
L   7.2983,   5.5296
L   7.2960,   5.5265
L   7.2929,   5.5241
L   7.2894,   5.5226
L   7.2856,   5.5220
L   7.2853,   5.5220
L   7.2073,   5.5220
L   7.2035,   5.5225
L   7.1999,   5.5240
L   7.1968,   5.5263
L   7.1944,   5.5294
L   7.1929,   5.5329
L   7.1923,   5.5367
L   7.1923,   5.5370
L   7.1923,   5.7458
L   7.1920,   5.7475
L   7.1770,   5.7887
L   7.1758,   5.7906
L   7.1739,   5.7917
L   7.1723,   5.7920
L   7.0063,   5.7920
L   7.0041,   5.7915
L   7.0024,   5.7901
L   7.0014,   5.7881
L   7.0013,   5.7870
L   7.0013,   5.5306
L   7.0018,   5.5163
L   7.0033,   5.5021
L   7.0058,   5.4880
L   7.0093,   5.4741
L   7.0137,   5.4605
L   7.0190,   5.4472
L   7.0253,   5.4344
L   7.0325,   5.4220
L   7.0405,   5.4101
L   7.0493,   5.3988
L   7.0589,   5.3882
L   7.0692,   5.3782
L   7.0782,   5.3706
L   7.0888,   5.3615
L   7.0987,   5.3517
L   7.1078,   5.3411
L   7.1162,   5.3300
L   7.1238,   5.3182
L   7.1305,   5.3060
L   7.1363,   5.2933
L   7.1412,   5.2802
L   7.1452,   5.2668
L   7.1482,   5.2532
L   7.1502,   5.2394
L   7.1512,   5.2254
L   7.1513,   5.2184
L   7.1513,   4.6350
L   7.1508,   4.6210
L   7.1493,   4.6072
L   7.1468,   4.5934
L   7.1434,   4.5799
L   7.1389,   4.5666
L   7.1336,   4.5538
L   7.1273,   4.5413
L   7.1202,   4.5293
L   7.1122,   4.5178
L   7.1034,   4.5070
L   7.0938,   4.4968
L   7.0836,   4.4873
L   7.0782,   4.4828
L   7.0673,   4.4734
L   7.0571,   4.4634
L   7.0477,   4.4526
L   7.0390,   4.4412
L   7.0311,   4.4293
L   7.0241,   4.4168
L   7.0180,   4.4038
L   7.0128,   4.3905
L   7.0086,   4.3768
L   7.0053,   4.3629
L   7.0030,   4.3488
L   7.0016,   4.3345
L   7.0013,   4.3228
L   7.0013,   4.0664
L   7.0018,   4.0642
L   7.0032,   4.0625
L   7.0052,   4.0615
L   7.0063,   4.0614
L   7.1723,   4.0614
L   7.1745,   4.0619
L   7.1762,   4.0633
L   7.1770,   4.0647
L   7.1920,   4.1059
L   7.1923,   4.1076
L   7.1923,   4.3164
L   7.1928,   4.3202
L   7.1943,   4.3238
L   7.1966,   4.3269
L   7.1997,   4.3293
L   7.2032,   4.3308
L   7.2070,   4.3314
L   7.2073,   4.3314
L   7.2853,   4.3314
L   7.2891,   4.3309
L   7.2927,   4.3294
L   7.2958,   4.3271
L   7.2982,   4.3240
L   7.2997,   4.3205
L   7.3003,   4.3167
L   7.3003,   4.3164
L   7.3003,   4.1076
L   7.3006,   4.1059
L   7.3156,   4.0647
L   7.3168,   4.0628
L   7.3187,   4.0617
L   7.3203,   4.0614
L   7.4013,   4.0614
L   7.4013,   3.7892
L   7.4018,   3.7818
L   7.4033,   3.7745
L   7.4057,   3.7675
L   7.4091,   3.7609
L   7.4134,   3.7548
L   7.4184,   3.7494
L   7.4241,   3.7446
L   7.4304,   3.7407
L   7.4371,   3.7377
L   7.4442,   3.7355
L   7.4516,   3.7344
L   7.4563,   3.7342
L   7.4683,   3.7342
L   7.4705,   3.7347
L   7.4722,   3.7361
L   7.4732,   3.7381
L   7.4733,   3.7392
L   7.4733,   3.9197
L   7.4738,   3.9337
L   7.4753,   3.9475
L   7.4778,   3.9613
L   7.4812,   3.9748
L   7.4857,   3.9881
L   7.4910,   4.0009
L   7.4973,   4.0134
L   7.5044,   4.0254
L   7.5124,   4.0369
L   7.5212,   4.0477
L   7.5308,   4.0579
L   7.5410,   4.0674
L   7.5519,   4.0761
L   7.5634,   4.0841
L   7.5754,   4.0912
L   7.5879,   4.0974
L   7.6009,   4.1027
L   7.6141,   4.1070
L   7.6277,   4.1104
L   7.6414,   4.1128
L   7.6553,   4.1143
L   7.6683,   4.1147
L   8.2813,   4.1147
L   8.2880,   4.1142
L   8.2945,   4.1127
L   8.3008,   4.1103
L   8.3066,   4.1069
L   8.3118,   4.1027
L   8.3164,   4.0978
L   8.3202,   4.0923
L   8.3231,   4.0863
L   8.3251,   4.0799
L   8.3262,   4.0732
L   8.3263,   4.0697
L   8.3263,   3.9892
L   8.3258,   3.9825
L   8.3243,   3.9760
L   8.3219,   3.9697
L   8.3185,   3.9639
L   8.3143,   3.9587
L   8.3094,   3.9541
L   8.3039,   3.9503
L   8.2979,   3.9474
L   8.2915,   3.9454
L   8.2848,   3.9443
L   8.2813,   3.9442
L   7.8613,   3.9442
L   7.8546,   3.9447
L   7.8481,   3.9462
L   7.8418,   3.9486
L   7.8360,   3.9520
L   7.8307,   3.9562
L   7.8262,   3.9611
L   7.8224,   3.9666
L   7.8210,   3.9691
L   7.8147,   3.9806
L   7.8075,   3.9916
L   7.7995,   4.0021
L   7.7908,   4.0119
L   7.7813,   4.0210
L   7.7711,   4.0293
L   7.7604,   4.0369
L   7.7490,   4.0436
L   7.7373,   4.0495
L   7.7251,   4.0544
L   7.7125,   4.0584
L   7.6997,   4.0614
L   7.6868,   4.0635
L   7.6736,   4.0645
L   7.6605,   4.0646
L   7.6474,   4.0637
L   7.6344,   4.0617
L   7.6215,   4.0588
L   7.6090,   4.0549
L   7.5967,   4.0501
L   7.5849,   4.0444
L   7.5735,   4.0377
L   7.5627,   4.0303
L   7.5525,   4.0220
L   7.5429,   4.0130
L   7.5341,   4.0032
L   7.5260,   3.9929
L   7.5187,   3.9819
L   7.5123,   3.9704
L   7.5067,   3.9585
L   7.5021,   3.9462
L   7.4984,   3.9336
L   7.4957,   3.9207
L   7.4940,   3.9076
L   7.4933,   3.8945
L   7.4933,   3.8917
L   7.4933,   3.7892
L   7.4938,   3.7818
L   7.4953,   3.7745
L   7.4977,   3.7675
L   7.5011,   3.7609
L   7.5054,   3.7548
L   7.5104,   3.7494
L   7.5161,   3.7446
L   7.5224,   3.7407
L   7.5291,   3.7377
L   7.5362,   3.7355
L   7.5436,   3.7344
L   7.5483,   3.7342
L   9.6393,   3.7342
L   9.6467,   3.7347
L   9.6540,   3.7362
L   9.6610,   3.7386
L   9.6676,   3.7420
L   9.6737,   3.7463
L   9.6791,   3.7513
L   9.6839,   3.7570
L   9.6878,   3.7633
L   9.6908,   3.7700
L   9.6930,   3.7771
L   9.6941,   3.7845
L   9.6943,   3.7892
L   9.6943,   3.8917
L   9.6938,   3.9048
L   9.6923,   3.9179
L   9.6898,   3.9308
L   9.6864,   3.9435
L   9.6819,   3.9559
L   9.6766,   3.9679
L   9.6704,   3.9795
L   9.6633,   3.9906
L   9.6553,   4.0011
L   9.6466,   4.0109
L   9.6372,   4.0201
L   9.6271,   4.0286
L   9.6164,   4.0362
L   9.6052,   4.0430
L   9.5934,   4.0489
L   9.5813,   4.0540
L   9.5688,   4.0581
L   9.5560,   4.0612
L   9.5430,   4.0633
L   9.5299,   4.0645
L   9.5168,   4.0646
L   9.5036,   4.0638
L   9.4906,   4.0620
L   9.4778,   4.0591
L   9.4652,   4.0553
L   9.4529,   4.0506
L   9.4410,   4.0450
L   9.4296,   4.0384
L   9.4187,   4.0310
L   9.4085,   4.0228
L   9.3988,   4.0139
L   9.3899,   4.0042
L   9.3817,   3.9939
L   9.3744,   3.9830
L   9.3678,   3.9716
L   9.3666,   3.9691
L   9.3631,   3.9633
L   9.3589,   3.9581
L   9.3539,   3.9536
L   9.3483,   3.9499
L   9.3422,   3.9471
L   9.3358,   3.9452
L   9.3291,   3.9443
L   9.3263,   3.9442
L   8.9063,   3.9442
L   8.8996,   3.9447
L   8.8931,   3.9462
L   8.8868,   3.9486
L   8.8810,   3.9520
L   8.8758,   3.9562
L   8.8712,   3.9611
L   8.8674,   3.9666
L   8.8645,   3.9726
L   8.8625,   3.9790
L   8.8614,   3.9857
L   8.8613,   3.9892
L   8.8613,   4.0697
L   8.8618,   4.0764
L   8.8633,   4.0829
L   8.8657,   4.0892
L   8.8691,   4.0950
L   8.8733,   4.1002
L   8.8782,   4.1048
L   8.8837,   4.1086
L   8.8897,   4.1115
L   8.8961,   4.1135
L   8.9028,   4.1146
L   8.9063,   4.1147
L   9.5193,   4.1147
L   9.5333,   4.1142
L   9.5471,   4.1127
L   9.5609,   4.1102
L   9.5744,   4.1068
L   9.5877,   4.1023
L   9.6005,   4.0970
L   9.6130,   4.0907
L   9.6250,   4.0836
L   9.6365,   4.0756
L   9.6473,   4.0668
L   9.6575,   4.0572
L   9.6670,   4.0470
L   9.6757,   4.0361
L   9.6837,   4.0246
L   9.6908,   4.0126
L   9.6970,   4.0001
L   9.7023,   3.9871
L   9.7066,   3.9739
L   9.7100,   3.9603
L   9.7124,   3.9466
L   9.7139,   3.9327
L   9.7143,   3.9197
L   9.7143,   3.7392
L   9.7148,   3.7370
L   9.7162,   3.7353
L   9.7182,   3.7343
L   9.7193,   3.7342
L   9.7313,   3.7342
L   9.7387,   3.7347
L   9.7460,   3.7362
L   9.7530,   3.7386
L   9.7596,   3.7420
L   9.7657,   3.7463
L   9.7711,   3.7513
L   9.7759,   3.7570
L   9.7798,   3.7633
L   9.7828,   3.7700
L   9.7850,   3.7771
L   9.7861,   3.7845
L   9.7863,   3.7892
L   9.7863,   4.0614
L   9.8673,   4.0614
L   9.8695,   4.0619
L   9.8712,   4.0633
L   9.8720,   4.0647
L   9.8870,   4.1059
L   9.8873,   4.1076
L   9.8873,   4.3164
L   9.8878,   4.3202
L   9.8893,   4.3238
L   9.8916,   4.3269
L   9.8947,   4.3293
L   9.8982,   4.3308
L   9.9020,   4.3314
L   9.9023,   4.3314
L   9.9803,   4.3314
L   9.9841,   4.3309
L   9.9877,   4.3294
L   9.9908,   4.3271
L   9.9932,   4.3240
L   9.9947,   4.3205
L   9.9953,   4.3167
L   9.9953,   4.3164
L   9.9953,   4.1076
L   9.9956,   4.1059
L  10.0106,   4.0647
L  10.0118,   4.0628
L  10.0137,   4.0617
L  10.0153,   4.0614
L  10.1813,   4.0614
L  10.1835,   4.0619
L  10.1852,   4.0633
L  10.1862,   4.0653
L  10.1863,   4.0664
L  10.1863,   4.3228
L  10.1863,   4.3228
L  10.1863,   4.3228"
/>
<path style="fill:none;stroke:#000000;stroke-width:0.001;stroke-opacity:1"
d = "M   7.2088,   0.5517
L   7.2083,   0.5479
L   7.2068,   0.5443
L   7.2045,   0.5412
L   7.2014,   0.5388
L   7.1979,   0.5373
L   7.1941,   0.5367
L   7.1902,   0.5371
L   7.1866,   0.5385
L   7.1863,   0.5387
L   7.1832,   0.5411
L   7.1809,   0.5441
L   7.1793,   0.5477
L   7.1788,   0.5515
L   7.1793,   0.5554
L   7.1807,   0.5590
L   7.1830,   0.5621
L   7.1860,   0.5645
L   7.1863,   0.5647
L   7.1899,   0.5662
L   7.1937,   0.5667
L   7.1976,   0.5662
L   7.2011,   0.5648
L   7.2043,   0.5625
L   7.2067,   0.5594
L   7.2082,   0.5559
L   7.2088,   0.5520
L   7.2088,   0.5517"
/>
<path style="fill:none;stroke:#000000;stroke-width:0.001;stroke-opacity:1"
d = "M   7.4038,   0.5517
L   7.4043,   0.5555
L   7.4058,   0.5591
L   7.4081,   0.5622
L   7.4112,   0.5646
L   7.4113,   0.5647
L   7.4149,   0.5662
L   7.4187,   0.5667
L   7.4226,   0.5662
L   7.4261,   0.5648
L   7.4293,   0.5625
L   7.4317,   0.5594
L   7.4332,   0.5559
L   7.4338,   0.5520
L   7.4338,   0.5517
L   7.4333,   0.5479
L   7.4318,   0.5443
L   7.4295,   0.5412
L   7.4264,   0.5388
L   7.4229,   0.5373
L   7.4191,   0.5367
L   7.4152,   0.5371
L   7.4116,   0.5385
L   7.4113,   0.5387
L   7.4082,   0.5411
L   7.4059,   0.5441
L   7.4043,   0.5477
L   7.4038,   0.5515
L   7.4038,   0.5517"
/>
<path style="fill:none;stroke:#000000;stroke-width:0.001;stroke-opacity:1"
d = "M   7.4178,   0.7617
L   7.4140,   0.7625
L   7.4113,   0.7637
L   7.4082,   0.7661
L   7.4059,   0.7691
L   7.4043,   0.7727
L   7.4038,   0.7765
L   7.4043,   0.7804
L   7.4057,   0.7840
L   7.4080,   0.7871
L   7.4110,   0.7895
L   7.4113,   0.7897
L   7.4149,   0.7912
L   7.4187,   0.7917
L   7.4226,   0.7912
L   7.4261,   0.7898
L   7.4293,   0.7875
L   7.4317,   0.7844
L   7.4332,   0.7809
L   7.4338,   0.7770
L   7.4338,   0.7767
L   7.4333,   0.7729
L   7.4318,   0.7693
L   7.4295,   0.7662
L   7.4264,   0.7638
L   7.4229,   0.7623
L   7.4191,   0.7617
L   7.4178,   0.7617"
/>
<path style="fill:none;stroke:#000000;stroke-width:0.001;stroke-opacity:1"
d = "M   7.2088,   0.7757
L   7.2080,   0.7719
L   7.2063,   0.7684
L   7.2038,   0.7655
L   7.2006,   0.7633
L   7.1969,   0.7620
L   7.1931,   0.7617
L   7.1892,   0.7624
L   7.1863,   0.7637
L   7.1832,   0.7661
L   7.1809,   0.7691
L   7.1793,   0.7727
L   7.1788,   0.7765
L   7.1793,   0.7804
L   7.1807,   0.7840
L   7.1830,   0.7871
L   7.1860,   0.7895
L   7.1863,   0.7897
L   7.1899,   0.7912
L   7.1937,   0.7917
L   7.1976,   0.7912
L   7.2011,   0.7898
L   7.2043,   0.7875
L   7.2067,   0.7844
L   7.2082,   0.7809
L   7.2088,   0.7770
L   7.2088,   0.7767
L   7.2088,   0.7757"
/>
</svg>
