<svg width="  2.8850in"  height="  3.3850in" viewBox="0 0   2.8850   3.3850">
<path style="fill:none;stroke:#000000;stroke-width:0.001;stroke-opacity:1"
d = "M   1.4093,   2.7364
L   1.4150,   2.7401
L   1.4245,   2.7445
L   1.4347,   2.7469
L   1.4452,   2.7474
L   1.4556,   2.7459
L   1.4655,   2.7425
L   1.4746,   2.7372
L   1.4825,   2.7303
L   1.4889,   2.7220
L   1.4937,   2.7127
L   1.4966,   2.7026
L   1.4975,   2.6925
L   1.4965,   2.6821
L   1.4935,   2.6720
L   1.4887,   2.6627
L   1.4822,   2.6545
L   1.4743,   2.6476
L   1.4652,   2.6424
L   1.4552,   2.6390
L   1.4449,   2.6376
L   1.4344,   2.6381
L   1.4242,   2.6406
L   1.4150,   2.6449
L   1.4065,   2.6510
L   1.3992,   2.6586
L   1.3936,   2.6674
L   1.3897,   2.6771
L   1.3877,   2.6874
L   1.3878,   2.6979
L   1.3898,   2.7082
L   1.3937,   2.7179
L   1.3994,   2.7267
L   1.4067,   2.7343
L   1.4093,   2.7364"
/>
<path style="fill:none;stroke:#000000;stroke-width:0.001;stroke-opacity:1"
d = "M   0.5074,   2.6954
L   0.5075,   2.6925
L   0.5065,   2.6811
L   0.5035,   2.6701
L   0.4987,   2.6598
L   0.4921,   2.6505
L   0.4840,   2.6425
L   0.4746,   2.6360
L   0.4643,   2.6312
L   0.4532,   2.6284
L   0.4419,   2.6275
L   0.4305,   2.6286
L   0.4195,   2.6317
L   0.4100,   2.6362
L   0.4007,   2.6428
L   0.3926,   2.6508
L   0.3861,   2.6602
L   0.3813,   2.6705
L   0.3784,   2.6816
L   0.3775,   2.6929
L   0.3786,   2.7043
L   0.3816,   2.7153
L   0.3865,   2.7256
L   0.3932,   2.7348
L   0.4013,   2.7428
L   0.4100,   2.7488
L   0.4203,   2.7536
L   0.4314,   2.7565
L   0.4427,   2.7575
L   0.4541,   2.7565
L   0.4651,   2.7535
L   0.4754,   2.7486
L   0.4847,   2.7420
L   0.4927,   2.7338
L   0.4991,   2.7244
L   0.5038,   2.7141
L   0.5066,   2.7030
L   0.5074,   2.6954"
/>
<path style="fill:none;stroke:#000000;stroke-width:0.001;stroke-opacity:1"
d = "M   0.4467,   1.7574
L   0.4580,   1.7556
L   0.4688,   1.7520
L   0.4787,   1.7465
L   0.4876,   1.7393
L   0.4951,   1.7307
L   0.5010,   1.7209
L   0.5050,   1.7103
L   0.5072,   1.6991
L   0.5075,   1.6925
L   0.5065,   1.6811
L   0.5035,   1.6701
L   0.4987,   1.6598
L   0.4921,   1.6505
L   0.4840,   1.6425
L   0.4746,   1.6360
L   0.4643,   1.6312
L   0.4532,   1.6284
L   0.4419,   1.6275
L   0.4305,   1.6286
L   0.4195,   1.6317
L   0.4100,   1.6362
L   0.4007,   1.6428
L   0.3926,   1.6508
L   0.3861,   1.6602
L   0.3813,   1.6705
L   0.3784,   1.6816
L   0.3775,   1.6929
L   0.3786,   1.7043
L   0.3816,   1.7153
L   0.3865,   1.7256
L   0.3932,   1.7348
L   0.4013,   1.7428
L   0.4100,   1.7488
L   0.4203,   1.7536
L   0.4314,   1.7565
L   0.4427,   1.7575
L   0.4467,   1.7574"
/>
<path style="fill:none;stroke:#000000;stroke-width:0.001;stroke-opacity:1"
d = "M   1.3876,   1.6961
L   1.3893,   1.7064
L   1.3929,   1.7163
L   1.3983,   1.7253
L   1.4053,   1.7330
L   1.4137,   1.7394
L   1.4150,   1.7401
L   1.4245,   1.7445
L   1.4347,   1.7469
L   1.4452,   1.7474
L   1.4556,   1.7459
L   1.4655,   1.7425
L   1.4746,   1.7372
L   1.4825,   1.7303
L   1.4889,   1.7220
L   1.4937,   1.7127
L   1.4966,   1.7026
L   1.4975,   1.6925
L   1.4965,   1.6821
L   1.4935,   1.6720
L   1.4887,   1.6627
L   1.4822,   1.6545
L   1.4743,   1.6476
L   1.4652,   1.6424
L   1.4552,   1.6390
L   1.4449,   1.6376
L   1.4344,   1.6381
L   1.4242,   1.6406
L   1.4150,   1.6449
L   1.4065,   1.6510
L   1.3992,   1.6586
L   1.3936,   1.6674
L   1.3897,   1.6771
L   1.3877,   1.6874
L   1.3876,   1.6961"
/>
<path style="fill:none;stroke:#000000;stroke-width:0.001;stroke-opacity:1"
d = "M   1.7796,   1.6929
L   1.7807,   1.7034
L   1.7837,   1.7134
L   1.7886,   1.7227
L   1.7952,   1.7309
L   1.8032,   1.7376
L   1.8071,   1.7401
L   1.8166,   1.7445
L   1.8268,   1.7469
L   1.8373,   1.7474
L   1.8477,   1.7459
L   1.8576,   1.7425
L   1.8667,   1.7372
L   1.8746,   1.7303
L   1.8810,   1.7220
L   1.8858,   1.7127
L   1.8887,   1.7026
L   1.8896,   1.6925
L   1.8886,   1.6821
L   1.8856,   1.6720
L   1.8808,   1.6627
L   1.8743,   1.6545
L   1.8664,   1.6476
L   1.8573,   1.6424
L   1.8473,   1.6390
L   1.8370,   1.6376
L   1.8265,   1.6381
L   1.8163,   1.6406
L   1.8071,   1.6449
L   1.7986,   1.6510
L   1.7913,   1.6586
L   1.7857,   1.6674
L   1.7818,   1.6771
L   1.7798,   1.6874
L   1.7796,   1.6929"
/>
<path style="fill:none;stroke:#000000;stroke-width:0.001;stroke-opacity:1"
d = "M   2.3775,   1.6925
L   2.3785,   1.7039
L   2.3815,   1.7149
L   2.3863,   1.7252
L   2.3929,   1.7345
L   2.4010,   1.7426
L   2.4100,   1.7488
L   2.4203,   1.7536
L   2.4314,   1.7565
L   2.4427,   1.7575
L   2.4541,   1.7565
L   2.4651,   1.7535
L   2.4754,   1.7486
L   2.4847,   1.7420
L   2.4927,   1.7338
L   2.4991,   1.7244
L   2.5038,   1.7141
L   2.5066,   1.7030
L   2.5075,   1.6925
L   2.5065,   1.6811
L   2.5035,   1.6701
L   2.4987,   1.6598
L   2.4921,   1.6505
L   2.4840,   1.6425
L   2.4746,   1.6360
L   2.4643,   1.6312
L   2.4532,   1.6284
L   2.4419,   1.6275
L   2.4305,   1.6286
L   2.4195,   1.6317
L   2.4100,   1.6362
L   2.4007,   1.6428
L   2.3926,   1.6508
L   2.3861,   1.6602
L   2.3813,   1.6705
L   2.3784,   1.6816
L   2.3775,   1.6925"
/>
<path style="fill:none;stroke:#000000;stroke-width:0.001;stroke-opacity:1"
d = "M   2.4704,   2.5404
L   2.4592,   2.5426
L   2.4486,   2.5468
L   2.4450,   2.5487
L   2.4357,   2.5553
L   2.4276,   2.5633
L   2.4211,   2.5727
L   2.4163,   2.5830
L   2.4134,   2.5941
L   2.4125,   2.6054
L   2.4136,   2.6168
L   2.4166,   2.6278
L   2.4215,   2.6381
L   2.4282,   2.6473
L   2.4363,   2.6553
L   2.4450,   2.6613
L   2.4553,   2.6661
L   2.4664,   2.6690
L   2.4777,   2.6700
L   2.4891,   2.6690
L   2.5001,   2.6660
L   2.5104,   2.6611
L   2.5197,   2.6545
L   2.5277,   2.6463
L   2.5341,   2.6369
L   2.5388,   2.6266
L   2.5416,   2.6155
L   2.5425,   2.6050
L   2.5415,   2.5936
L   2.5385,   2.5826
L   2.5337,   2.5723
L   2.5271,   2.5630
L   2.5190,   2.5550
L   2.5096,   2.5485
L   2.4993,   2.5437
L   2.4882,   2.5409
L   2.4769,   2.5400
L   2.4704,   2.5404"
/>
<path style="fill:none;stroke:#000000;stroke-width:0.001;stroke-opacity:1"
d = "M   2.4772,   0.8450
L   2.4886,   0.8440
L   2.4996,   0.8411
L   2.5100,   0.8363
L   2.5193,   0.8298
L   2.5274,   0.8217
L   2.5339,   0.8124
L   2.5387,   0.8020
L   2.5416,   0.7910
L   2.5425,   0.7800
L   2.5415,   0.7686
L   2.5385,   0.7576
L   2.5337,   0.7473
L   2.5271,   0.7380
L   2.5190,   0.7300
L   2.5096,   0.7235
L   2.4993,   0.7187
L   2.4882,   0.7159
L   2.4769,   0.7150
L   2.4655,   0.7161
L   2.4545,   0.7192
L   2.4450,   0.7237
L   2.4357,   0.7303
L   2.4276,   0.7383
L   2.4211,   0.7477
L   2.4163,   0.7580
L   2.4134,   0.7691
L   2.4125,   0.7804
L   2.4136,   0.7918
L   2.4166,   0.8028
L   2.4215,   0.8131
L   2.4282,   0.8223
L   2.4363,   0.8303
L   2.4450,   0.8363
L   2.4553,   0.8411
L   2.4664,   0.8440
L   2.4772,   0.8450"
/>
<path style="fill:none;stroke:#000000;stroke-width:0.001;stroke-opacity:1"
d = "M   1.4969,   0.7005
L   1.4975,   0.6925
L   1.4965,   0.6821
L   1.4935,   0.6720
L   1.4887,   0.6627
L   1.4822,   0.6545
L   1.4743,   0.6476
L   1.4652,   0.6424
L   1.4552,   0.6390
L   1.4449,   0.6376
L   1.4344,   0.6381
L   1.4242,   0.6406
L   1.4150,   0.6449
L   1.4065,   0.6510
L   1.3992,   0.6586
L   1.3936,   0.6674
L   1.3897,   0.6771
L   1.3877,   0.6874
L   1.3878,   0.6979
L   1.3898,   0.7082
L   1.3937,   0.7179
L   1.3994,   0.7267
L   1.4067,   0.7343
L   1.4150,   0.7401
L   1.4245,   0.7445
L   1.4347,   0.7469
L   1.4452,   0.7474
L   1.4556,   0.7459
L   1.4655,   0.7425
L   1.4746,   0.7372
L   1.4825,   0.7303
L   1.4889,   0.7220
L   1.4937,   0.7127
L   1.4966,   0.7026
L   1.4969,   0.7005"
/>
<path style="fill:none;stroke:#000000;stroke-width:0.001;stroke-opacity:1"
d = "M   0.5075,   0.6930
L   0.5075,   0.6925
L   0.5065,   0.6811
L   0.5035,   0.6701
L   0.4987,   0.6598
L   0.4921,   0.6505
L   0.4840,   0.6425
L   0.4746,   0.6360
L   0.4643,   0.6312
L   0.4532,   0.6284
L   0.4419,   0.6275
L   0.4305,   0.6286
L   0.4195,   0.6317
L   0.4100,   0.6362
L   0.4007,   0.6428
L   0.3926,   0.6508
L   0.3861,   0.6602
L   0.3813,   0.6705
L   0.3784,   0.6816
L   0.3775,   0.6929
L   0.3786,   0.7043
L   0.3816,   0.7153
L   0.3865,   0.7256
L   0.3932,   0.7348
L   0.4013,   0.7428
L   0.4100,   0.7488
L   0.4203,   0.7536
L   0.4314,   0.7565
L   0.4427,   0.7575
L   0.4541,   0.7565
L   0.4651,   0.7535
L   0.4754,   0.7486
L   0.4847,   0.7420
L   0.4927,   0.7338
L   0.4991,   0.7244
L   0.5038,   0.7141
L   0.5066,   0.7030
L   0.5075,   0.6930"
/>
<path style="fill:none;stroke:#000000;stroke-width:0.001;stroke-opacity:1"
d = "M   0.5075,   0.5000
L   0.5772,   0.5000
L   0.5772,   0.4730
L   0.5782,   0.4700
L   0.5808,   0.4682
L   0.5822,   0.4680
L   0.6442,   0.4680
L   0.6472,   0.4690
L   0.6490,   0.4716
L   0.6492,   0.4730
L   0.6492,   0.5000
L   1.0925,   0.5000
L   1.1062,   0.4990
L   1.1197,   0.4960
L   1.1326,   0.4911
L   1.1446,   0.4844
L   1.1556,   0.4760
L   1.1652,   0.4662
L   1.1733,   0.4550
L   1.1797,   0.4428
L   1.1842,   0.4298
L   1.1868,   0.4162
L   1.1875,   0.4050
L   1.1875,   0.3550
L   1.1885,   0.3405
L   1.1915,   0.3264
L   1.1964,   0.3127
L   1.2031,   0.2999
L   1.2116,   0.2881
L   1.2215,   0.2776
L   1.2329,   0.2686
L   1.2453,   0.2612
L   1.2587,   0.2556
L   1.2727,   0.2519
L   1.2871,   0.2501
L   1.2925,   0.2500
L   1.5925,   0.2500
L   1.6070,   0.2510
L   1.6211,   0.2540
L   1.6348,   0.2589
L   1.6476,   0.2656
L   1.6594,   0.2741
L   1.6699,   0.2840
L   1.6789,   0.2954
L   1.6863,   0.3078
L   1.6919,   0.3212
L   1.6956,   0.3352
L   1.6974,   0.3496
L   1.6975,   0.3550
L   1.6975,   0.4050
L   1.6985,   0.4187
L   1.7015,   0.4322
L   1.7064,   0.4451
L   1.7131,   0.4571
L   1.7215,   0.4681
L   1.7313,   0.4777
L   1.7425,   0.4858
L   1.7547,   0.4922
L   1.7677,   0.4967
L   1.7813,   0.4993
L   1.7925,   0.5000
L   2.2358,   0.5000
L   2.2358,   0.4730
L   2.2368,   0.4700
L   2.2394,   0.4682
L   2.2408,   0.4680
L   2.3028,   0.4680
L   2.3058,   0.4690
L   2.3076,   0.4716
L   2.3078,   0.4730
L   2.3078,   0.5000
L   2.5800,   0.5000
L   2.5904,   0.5010
L   2.6005,   0.5040
L   2.6098,   0.5088
L   2.6180,   0.5153
L   2.6249,   0.5232
L   2.6301,   0.5323
L   2.6335,   0.5423
L   2.6336,   0.5426
L   2.6336,   0.5449
L   2.6303,   0.5548
L   2.6251,   0.5640
L   2.6183,   0.5720
L   2.6101,   0.5785
L   2.6009,   0.5834
L   2.5908,   0.5864
L   2.5804,   0.5875
L   2.5800,   0.5875
L   2.4775,   0.5875
L   2.4579,   0.5885
L   2.4385,   0.5915
L   2.4195,   0.5964
L   2.4011,   0.6033
L   2.3835,   0.6120
L   2.3669,   0.6224
L   2.3515,   0.6345
L   2.3373,   0.6481
L   2.3246,   0.6630
L   2.3135,   0.6792
L   2.3041,   0.6964
L   2.2965,   0.7145
L   2.2908,   0.7333
L   2.2870,   0.7525
L   2.2852,   0.7721
L   2.2850,   0.7800
L   2.2850,   1.3800
L   2.2860,   1.3894
L   2.2890,   1.3984
L   2.2937,   1.4066
L   2.3001,   1.4137
L   2.3078,   1.4192
L   2.3165,   1.4229
L   2.3259,   1.4248
L   2.3300,   1.4250
L   2.3800,   1.4250
L   2.3894,   1.4240
L   2.3984,   1.4210
L   2.4066,   1.4163
L   2.4137,   1.4099
L   2.4192,   1.4022
L   2.4229,   1.3935
L   2.4248,   1.3841
L   2.4250,   1.3800
L   2.4250,   0.9402
L   2.4240,   0.9307
L   2.4210,   0.9217
L   2.4163,   0.9135
L   2.4099,   0.9065
L   2.4034,   0.9017
L   2.3895,   0.8921
L   2.3769,   0.8809
L   2.3657,   0.8683
L   2.3560,   0.8545
L   2.3480,   0.8396
L   2.3419,   0.8238
L   2.3377,   0.8075
L   2.3354,   0.7908
L   2.3351,   0.7739
L   2.3369,   0.7571
L   2.3405,   0.7406
L   2.3462,   0.7247
L   2.3536,   0.7096
L   2.3628,   0.6954
L   2.3736,   0.6824
L   2.3859,   0.6708
L   2.3995,   0.6608
L   2.4141,   0.6524
L   2.4296,   0.6458
L   2.4459,   0.6411
L   2.4625,   0.6383
L   2.4775,   0.6375
L   2.5800,   0.6375
L   2.5904,   0.6385
L   2.6005,   0.6415
L   2.6098,   0.6463
L   2.6180,   0.6528
L   2.6249,   0.6607
L   2.6301,   0.6698
L   2.6335,   0.6798
L   2.6349,   0.6901
L   2.6350,   0.6925
L   2.6350,   2.6925
L   2.6340,   2.7029
L   2.6310,   2.7130
L   2.6262,   2.7223
L   2.6197,   2.7305
L   2.6118,   2.7374
L   2.6027,   2.7426
L   2.5927,   2.7460
L   2.5824,   2.7474
L   2.5800,   2.7475
L   2.4775,   2.7475
L   2.4606,   2.7465
L   2.4440,   2.7435
L   2.4279,   2.7386
L   2.4124,   2.7318
L   2.3979,   2.7232
L   2.3845,   2.7130
L   2.3724,   2.7012
L   2.3617,   2.6881
L   2.3527,   2.6738
L   2.3455,   2.6586
L   2.3400,   2.6426
L   2.3366,   2.6261
L   2.3351,   2.6092
L   2.3356,   2.5924
L   2.3381,   2.5757
L   2.3425,   2.5594
L   2.3488,   2.5437
L   2.3570,   2.5290
L   2.3668,   2.5152
L   2.3782,   2.5028
L   2.3910,   2.4918
L   2.4034,   2.4833
L   2.4109,   2.4775
L   2.4171,   2.4703
L   2.4216,   2.4620
L   2.4243,   2.4529
L   2.4250,   2.4448
L   2.4250,   2.0050
L   2.4240,   1.9956
L   2.4210,   1.9866
L   2.4163,   1.9784
L   2.4099,   1.9713
L   2.4022,   1.9658
L   2.3935,   1.9621
L   2.3841,   1.9602
L   2.3800,   1.9600
L   2.3300,   1.9600
L   2.3206,   1.9610
L   2.3116,   1.9640
L   2.3034,   1.9687
L   2.2963,   1.9751
L   2.2908,   1.9828
L   2.2871,   1.9915
L   2.2852,   2.0009
L   2.2850,   2.0050
L   2.2850,   2.6050
L   2.2860,   2.6246
L   2.2890,   2.6440
L   2.2939,   2.6630
L   2.3008,   2.6814
L   2.3095,   2.6990
L   2.3199,   2.7156
L   2.3320,   2.7310
L   2.3456,   2.7452
L   2.3605,   2.7579
L   2.3767,   2.7690
L   2.3939,   2.7784
L   2.4120,   2.7860
L   2.4308,   2.7917
L   2.4500,   2.7955
L   2.4696,   2.7973
L   2.4775,   2.7975
L   2.5800,   2.7975
L   2.5904,   2.7985
L   2.6005,   2.8015
L   2.6098,   2.8063
L   2.6180,   2.8128
L   2.6249,   2.8207
L   2.6301,   2.8298
L   2.6335,   2.8398
L   2.6336,   2.8401
L   2.6336,   2.8424
L   2.6303,   2.8523
L   2.6251,   2.8615
L   2.6183,   2.8695
L   2.6101,   2.8760
L   2.6009,   2.8809
L   2.5908,   2.8839
L   2.5804,   2.8850
L   2.5800,   2.8850
L   2.3078,   2.8850
L   2.3078,   2.9120
L   2.3068,   2.9150
L   2.3042,   2.9168
L   2.3028,   2.9170
L   2.2408,   2.9170
L   2.2378,   2.9160
L   2.2360,   2.9134
L   2.2358,   2.9120
L   2.2358,   2.8850
L   1.7925,   2.8850
L   1.7788,   2.8860
L   1.7653,   2.8890
L   1.7524,   2.8939
L   1.7404,   2.9006
L   1.7294,   2.9090
L   1.7198,   2.9188
L   1.7117,   2.9300
L   1.7053,   2.9422
L   1.7008,   2.9552
L   1.6982,   2.9688
L   1.6975,   2.9800
L   1.6975,   3.0300
L   1.6965,   3.0445
L   1.6935,   3.0586
L   1.6886,   3.0723
L   1.6819,   3.0851
L   1.6734,   3.0969
L   1.6635,   3.1074
L   1.6521,   3.1164
L   1.6397,   3.1238
L   1.6263,   3.1294
L   1.6123,   3.1331
L   1.5979,   3.1349
L   1.5925,   3.1350
L   1.2925,   3.1350
L   1.2780,   3.1340
L   1.2639,   3.1310
L   1.2502,   3.1261
L   1.2374,   3.1194
L   1.2256,   3.1109
L   1.2151,   3.1010
L   1.2061,   3.0896
L   1.1987,   3.0772
L   1.1931,   3.0638
L   1.1894,   3.0498
L   1.1876,   3.0354
L   1.1875,   3.0300
L   1.1875,   2.9800
L   1.1865,   2.9663
L   1.1835,   2.9528
L   1.1786,   2.9399
L   1.1719,   2.9279
L   1.1635,   2.9169
L   1.1537,   2.9073
L   1.1425,   2.8992
L   1.1303,   2.8928
L   1.1173,   2.8883
L   1.1037,   2.8857
L   1.0925,   2.8850
L   0.6492,   2.8850
L   0.6492,   2.9120
L   0.6482,   2.9150
L   0.6456,   2.9168
L   0.6442,   2.9170
L   0.5822,   2.9170
L   0.5792,   2.9160
L   0.5774,   2.9134
L   0.5772,   2.9120
L   0.5772,   2.8850
L   0.3550,   2.8850
L   0.3405,   2.8840
L   0.3264,   2.8810
L   0.3127,   2.8761
L   0.2999,   2.8694
L   0.2881,   2.8609
L   0.2776,   2.8510
L   0.2686,   2.8396
L   0.2612,   2.8272
L   0.2556,   2.8138
L   0.2519,   2.7998
L   0.2501,   2.7854
L   0.2500,   2.7800
L   0.2500,   0.6050
L   0.2510,   0.5905
L   0.2540,   0.5764
L   0.2589,   0.5627
L   0.2656,   0.5499
L   0.2741,   0.5381
L   0.2840,   0.5276
L   0.2954,   0.5186
L   0.3078,   0.5112
L   0.3212,   0.5056
L   0.3352,   0.5019
L   0.3496,   0.5001
L   0.3550,   0.5000
L   0.5075,   0.5000"
/>
</svg>
